<svg xmlns="http://www.w3.org/2000/svg" id="Layer_1" data-name="Layer 1" viewBox="0 0 191 64"><defs><style>.cls-1{fill:#f58843}.cls-2{fill:#05538d}</style></defs><path d="m93.68 38.41.96-6.37c.09-.6.61-1.04 1.21-1.04.68 0 1.23.55 1.23 1.23v9.22h-1.55v-7.49l-1.13 7.49h-1.55l-1.22-7.39v7.39H90.2v-9.22c0-.68.55-1.23 1.23-1.23h.01c.6 0 1.11.44 1.21 1.03l1.04 6.39ZM107.13 33.5c0-.85.2-1.49.6-1.95.4-.45 1.01-.68 1.81-.68s1.41.23 1.81.68q.6.675.6 1.95c0 .22-.18.4-.4.4h-.75c-.22 0-.4-.18-.4-.4v-.1c0-.38-.07-.64-.22-.8-.14-.15-.35-.23-.6-.23s-.46.08-.6.23-.22.42-.22.8c0 .36.08.67.24.95q.24.405.6.78c.24.24.5.49.77.73s.53.51.77.8q.36.435.6.99c.16.37.24.8.24 1.3 0 .85-.21 1.5-.62 1.95s-1.02.68-1.83.68-1.42-.23-1.83-.68-.62-1.1-.62-1.95c0-.4.32-.72.72-.72h.12c.4 0 .72.32.72.72v.1c0 .38.08.64.23.79s.36.22.62.22.46-.07.62-.22c.15-.15.23-.41.23-.79 0-.36-.08-.67-.24-.95q-.24-.405-.6-.78c-.24-.24-.5-.49-.77-.73a7 7 0 0 1-.77-.8q-.36-.435-.6-.99c-.16-.37-.24-.8-.24-1.3M114.71 30.99h3.58c.41 0 .75.33.75.75s-.33.75-.75.75h-.97v8.96h-1.64v-8.96h-.97c-.41 0-.75-.33-.75-.75s.33-.75.75-.75M131.69 41.44c-.02-.07-.04-.13-.06-.19a1 1 0 0 1-.05-.22c-.02-.09-.03-.2-.03-.34v-2.16c0-.49-.08-.83-.25-1.03s-.44-.3-.82-.3h-.06c-.28 0-.51.23-.51.51v3.24c0 .28-.23.51-.51.51h-.63c-.28 0-.51-.23-.51-.51v-9.43c0-.28.23-.51.51-.51h1.97q1.29 0 1.86.6c.38.4.57 1 .57 1.81v.82c0 .78-.19 1.36-.56 1.75-.19.2-.17.51.02.7.14.14.25.3.32.49.15.38.23.85.23 1.4v1.61c0 .26 0 .49.03.68.03.31-.19.58-.5.58h-1.02Zm-1.79-8.45v2.19c0 .28.23.51.51.51h.13q.465 0 .72-.24c.17-.16.26-.45.26-.87v-1.03c0-.38-.07-.65-.2-.82s-.35-.25-.63-.25h-.28c-.28 0-.51.23-.51.51M140.38 30.99c.45 0 .82.37.82.82v8.13h2.7v1.49h-4.34V31.8c0-.45.37-.82.82-.82M151.93 33.87v7.57h-1.48v-9.72c0-.4.33-.73.73-.73h.77c.33 0 .62.22.71.54l1.54 5.71v-5.52c0-.4.33-.73.73-.73s.73.33.73.73v9.72h-1.69zM159.13 30.99c.43 0 .78.35.78.78v7.28c0 .38.08.64.23.79s.36.22.62.22.47-.07.62-.22.23-.41.23-.79v-7.28a.781.781 0 0 1 1.56 0v7.18c0 .85-.21 1.5-.62 1.95s-1.02.68-1.83.68-1.42-.23-1.83-.68-.62-1.1-.62-1.95v-7.18c0-.43.35-.78.78-.78h.09ZM102.21 30.99c-.69 0-1.28.5-1.39 1.19l-1.48 9.26h1.51l.28-1.9.21-1.42.79-5.28.79 5.28.22 1.42.28 1.9h1.66l-1.48-9.26c-.11-.68-.7-1.19-1.39-1.19M122.92 32.49h2.09c.41 0 .75-.33.75-.75s-.33-.75-.75-.75h-2.12l.03 2v-.51Z"/><path d="M122.89 30.99h-1.61v10.45h3.73c.41 0 .75-.33.75-.75s-.33-.75-.75-.75h-2.09v-3.06h1.51c.41 0 .75-.33.75-.75s-.33-.75-.75-.75h-1.51v-2.4l-.03-2ZM146.14 33.92v6.8c0 .4.37.72.82.72s.82-.32.82-.72v-6.8c0-.4-.37-.72-.82-.72s-.82.32-.82.72"/><path d="m170.71 33.46 1.74-2.13a.92.92 0 0 1 .72-.34c.78 0 1.21.91.72 1.51l-2.04 2.49-1.13-1.54ZM170.71 39.07l1.73 2.13c.18.22.44.34.72.34.78 0 1.21-.9.72-1.51l-2.03-2.5-1.14 1.53ZM166.21 30.99c.28 0 .54.13.72.34l4.03 4.92-4.03 4.95a.92.92 0 0 1-.72.34c-.78 0-1.21-.9-.73-1.51l2.99-3.77-2.98-3.77c-.48-.61-.05-1.51.73-1.51" class="cls-1"/><path d="M147.87 31.9c0 .5-.4.9-.9.9s-.9-.4-.9-.9.4-.9.9-.9.9.4.9.9"/><path d="M169.89 45.68c.32-.06.63-.03.94.08s.58.3.82.56q.105.12.15.18l-2.32 2.09c.28.28.59.44.95.49s.68-.06.98-.33c.24-.22.4-.44.48-.67s.09-.47.04-.72l.52-.08c.06.33.03.65-.08.96s-.32.6-.61.87c-.27.25-.58.4-.9.46-.33.06-.66.03-.98-.09-.33-.12-.62-.33-.88-.62s-.43-.6-.52-.94-.08-.66.01-.98c.1-.32.28-.6.55-.84.25-.23.54-.37.86-.43m1.19.86c-.3-.26-.6-.39-.89-.4-.29 0-.57.11-.84.35-.26.23-.4.51-.42.83s.07.62.25.92zM94.11 44.76h-1.65v4.56h-.67v-4.56h-1.64v-.55h3.96zM96.12 45.98c.29-.35.66-.53 1.12-.53.8 0 1.21.45 1.22 1.36v2.51h-.65V46.8c0-.27-.07-.48-.19-.61s-.31-.2-.57-.2c-.21 0-.4.06-.56.17s-.28.26-.37.44v2.71h-.65v-5.4h.65v2.06ZM101.72 49.39c-.52 0-.93-.17-1.26-.51-.32-.34-.48-.79-.48-1.36v-.12c0-.38.07-.71.22-1.01.14-.3.35-.53.6-.7.26-.17.54-.25.84-.25.49 0 .88.16 1.15.49s.41.79.41 1.4v.27h-2.58c0 .37.12.68.33.91s.48.35.8.35c.23 0 .42-.05.58-.14s.3-.22.42-.37l.4.31c-.32.49-.8.73-1.43.73m-.09-3.4c-.26 0-.48.1-.66.29s-.29.46-.33.8h1.9v-.05c-.02-.33-.11-.59-.27-.77s-.37-.27-.65-.27M107.92 47.32v2h-.67V44.2h1.89c.56 0 1 .14 1.32.43s.48.66.48 1.14c0 .5-.16.88-.47 1.15s-.75.4-1.33.4h-1.21Zm0-.55h1.21c.36 0 .64-.08.83-.26.19-.17.29-.42.29-.74s-.1-.55-.29-.73-.46-.28-.79-.29h-1.25v2.01ZM112.17 46.89c0-.28.07-.53.22-.75s.35-.39.61-.51.56-.18.89-.18c.52 0 .94.13 1.26.4s.48.62.48 1.06v.03c0 .27-.07.52-.21.74s-.34.39-.61.51c-.26.12-.57.18-.91.18-.52 0-.93-.13-1.25-.4s-.48-.62-.48-1.06v-.03Zm.65.06c0 .31.1.56.29.75.2.19.46.28.79.28s.59-.1.79-.29c.19-.19.29-.46.29-.81q0-.465-.3-.75c-.2-.19-.46-.29-.79-.29s-.58.09-.78.28-.3.46-.3.81M120.52 48.43l.73-2.91h.65l-1.11 3.8h-.52l-.93-2.88-.9 2.88h-.53l-1.1-3.8h.65l.75 2.85.88-2.85h.53zM124.84 49.39c-.52 0-.93-.17-1.26-.51-.32-.34-.48-.79-.48-1.36v-.12c0-.38.07-.71.22-1.01.14-.3.35-.53.6-.7.26-.17.54-.25.84-.25.49 0 .88.16 1.15.49s.41.79.41 1.4v.27h-2.58c0 .37.12.68.33.91s.48.35.8.35c.23 0 .42-.05.58-.14s.3-.22.42-.37l.4.31c-.32.49-.8.73-1.43.73m-.08-3.4c-.26 0-.48.1-.66.29s-.29.46-.33.8h1.9v-.05c-.02-.33-.11-.59-.27-.77s-.37-.27-.65-.27M129.62 46.1c-.1-.02-.21-.02-.32-.02q-.645 0-.87.54v2.7h-.65v-3.8h.63v.44c.22-.34.53-.51.92-.51.13 0 .22.02.29.05zM137.45 46.93c0 .5-.08.94-.25 1.31s-.41.66-.72.86-.67.3-1.08.3-.76-.1-1.07-.3-.55-.48-.73-.85a3.2 3.2 0 0 1-.27-1.27v-.37c0-.49.09-.93.26-1.3.17-.38.41-.67.73-.87.31-.2.67-.3 1.07-.3s.77.1 1.08.3.55.48.72.86.25.81.25 1.31v.32Zm-.67-.33c0-.61-.12-1.07-.37-1.4-.24-.32-.58-.49-1.02-.49s-.76.16-1.01.49c-.24.32-.37.77-.38 1.35v.38c0 .59.12 1.05.37 1.39s.59.5 1.02.5.77-.16 1.01-.48.36-.77.37-1.37v-.38ZM139.38 49.32v-3.3h-.6v-.5h.6v-.39c0-.41.11-.72.33-.95.22-.22.53-.33.92-.33q.225 0 .45.06l-.04.52c-.11-.02-.23-.03-.35-.03-.21 0-.37.06-.49.19-.11.12-.17.3-.17.53v.4h.81v.5h-.81v3.3zM148.62 47.7c-.06.54-.26.96-.6 1.25s-.78.44-1.34.44c-.6 0-1.09-.22-1.45-.65s-.55-1.01-.55-1.74v-.49c0-.48.08-.89.25-1.25s.41-.64.72-.83.67-.29 1.08-.29c.54 0 .98.15 1.31.45q.495.45.57 1.26h-.68c-.06-.41-.19-.7-.38-.89-.2-.18-.47-.28-.82-.28-.43 0-.77.16-1.01.48s-.37.77-.37 1.36v.5c0 .56.12 1 .35 1.33s.56.49.97.49c.37 0 .66-.08.86-.25s.33-.47.4-.89h.68ZM150.79 45.98c.29-.35.66-.53 1.12-.53.8 0 1.21.45 1.22 1.36v2.51h-.65V46.8c0-.27-.07-.48-.19-.61s-.31-.2-.57-.2c-.21 0-.4.06-.56.17s-.28.26-.37.44v2.71h-.65v-5.4h.65v2.06ZM157.16 49.32c-.04-.07-.07-.21-.09-.4-.3.31-.66.47-1.08.47-.37 0-.68-.11-.92-.32q-.36-.315-.36-.81c0-.4.15-.7.45-.92s.72-.33 1.27-.33h.63v-.3c0-.23-.07-.41-.2-.54s-.34-.2-.6-.2c-.23 0-.43.06-.58.18-.16.12-.24.26-.24.43h-.65c0-.19.07-.37.2-.55s.32-.32.55-.42.48-.15.76-.15c.44 0 .78.11 1.03.33s.38.52.39.9v1.75c0 .35.04.63.13.83v.06h-.68Zm-1.08-.49c.2 0 .4-.05.58-.16s.32-.24.4-.41v-.78h-.51c-.8 0-1.19.23-1.19.7 0 .2.07.36.2.48.14.11.31.17.52.17M160.05 45.52l.02.48c.29-.37.67-.55 1.14-.55.8 0 1.21.45 1.22 1.36v2.51h-.65V46.8c0-.27-.07-.48-.19-.61s-.31-.2-.57-.2c-.21 0-.4.06-.56.17s-.28.26-.37.44v2.71h-.65v-3.8h.61ZM163.96 47.39c0-.59.14-1.06.41-1.41s.64-.53 1.09-.53.83.16 1.09.49l.03-.42h.59v3.71c0 .49-.15.88-.44 1.16s-.68.43-1.18.43c-.27 0-.54-.06-.8-.18q-.39-.18-.6-.48l.34-.39c.28.34.62.52 1.02.52.32 0 .56-.09.74-.27s.27-.43.27-.75v-.33c-.26.3-.61.45-1.06.45s-.81-.18-1.08-.54c-.28-.36-.41-.85-.41-1.47m.64.08c0 .43.09.77.26 1.01.18.24.42.37.74.37.41 0 .71-.19.9-.56v-1.74q-.3-.54-.9-.54a.85.85 0 0 0-.74.37c-.18.25-.27.61-.27 1.09M173.44 48.99c0-.11.03-.2.1-.27.06-.07.16-.11.29-.11s.22.04.29.11.1.16.1.27-.03.19-.1.26-.16.1-.29.1-.22-.03-.29-.1a.4.4 0 0 1-.1-.26m.66-1.12h-.59l-.04-3.33c0-.19.15-.34.34-.34s.34.15.34.34l-.04 3.33ZM46.97 56.32l17.75-13.89s1.4-3.41-2.44-3.31L44.26 52.8c-.76.58-1.07 1.57-.76 2.47.49 1.45 2.27 1.99 3.47 1.04M55.91 56.33l18-13.69s1.44-3.39-2.39-3.34L53.28 52.76c-.75.55-1.06 1.52-.78 2.4l.04.12c.46 1.42 2.18 1.97 3.37 1.06" class="cls-2"/><path d="M26.82 37.77c0 1.04.02 2.07 0 3.11-.03 1.32-.86 2.2-2.06 2.23-1.23.03-2.16-.76-2.21-2.08q-.105-3.3 0-6.6c.04-1.35 1.03-2.2 2.26-2.14 1.19.06 2 .96 2.02 2.28.02 1.07 0 2.13 0 3.2M21.33 40.83c0 1.21-.99 2.24-2.2 2.27-1.24.03-2.33-1.01-2.33-2.24s1.07-2.29 2.3-2.27c1.21.02 2.23 1.04 2.23 2.24M77.15 37.62c0-1.04-.02-2.07 0-3.11.03-1.32.86-2.2 2.06-2.23 1.23-.03 2.16.76 2.21 2.08q.105 3.3 0 6.6c-.04 1.35-1.03 2.2-2.26 2.14-1.19-.06-2-.96-2.02-2.28-.02-1.07 0-2.13 0-3.2M82.64 34.62c0-1.21.99-2.24 2.2-2.27 1.24-.03 2.33 1.01 2.33 2.24s-1.07 2.29-2.3 2.27c-1.21-.02-2.23-1.04-2.23-2.24" class="cls-1"/><path d="M75.97 50.86c0 2.66-1.16 4.65-3.49 5.82h-.01c-.47.23-1.01-.12-1.01-.65v-4.96c.02-.19.03-.38.03-.58V23.67c0-.87-.17-1.64-1.01-2.07-.85-.44-1.54-.08-2.23.44-7.32 5.57-14.65 11.12-21.98 16.67-1.23.93-2.57.81-3.38-.29s-.54-2.43.7-3.37c1.28-.98 2.57-1.96 3.92-2.98.31-.24.32-.72 0-.96-3.93-3.01-7.87-6.01-11.8-9.03-.69-.53-1.37-.87-2.23-.44-.84.43-1.01 1.19-1.01 2.07v26.82c0 .88.18 1.64 1.01 2.07.85.43 1.54.08 2.23-.44 5.18-3.96 10.38-7.91 15.57-11.86 2.1-1.6 4.2-3.22 6.32-4.8 1.08-.81 2.44-.63 3.2.38.78 1.03.57 2.42-.52 3.29-.49.39-1 .76-1.5 1.14-.99.75-1.97 1.51-3.01 2.3L52 45.5c-.28.2-.53.38-.78.57-4.38 3.33-8.74 6.68-13.14 9.99-.63.47-1.39.72-2.17.72h-2.27c-2.55 0-4.83-1.7-5.46-4.19l-.06-.26c-.1-.49-.12-1-.12-1.5V23.44c0-2.69 1.14-4.71 3.51-5.9 2.37-1.18 4.65-.86 6.75.75 4.31 3.3 8.62 6.59 12.93 9.88.12.09.25.18.38.28a.6.6 0 0 0 .7 0c.12-.09.24-.17.35-.26 4.43-3.36 8.84-6.73 13.28-10.06 3.55-2.66 8.51-1.05 9.78 3.15.19.65.28 1.35.28 2.03.02 9.18.01 18.36 0 27.54" class="cls-2"/><path d="M24.2 20.96c-.39.18-.63.18-1.02 0-.25.61-.63 1.72-.91 2.43.13.06.26.11.4.15l.65-1.84-.36 1.92c.72.16 1.47.08 2.15-.23-.26-.71-.65-1.83-.91-2.43" class="cls-1"/><path d="M24.01 20.96h-.63v-6.04l.63.23z" class="cls-1"/><path d="M24.2 20.96c0 .27-.23.5-.51.5s-.51-.22-.51-.5.23-.5.51-.5.51.22.51.5" class="cls-1"/><path d="M25.69 18.27s5.16-5.58 11.08-4.04L36 11.6v-.4l3.65-3.1-11.29-.89-8.72 7.46 4.91.55 1.13 3.06Z" class="cls-2"/></svg>