<svg xmlns="http://www.w3.org/2000/svg" data-name="Layer 1" viewBox="0 0 191 64"><path d="M61.19 53.27c3.74.04 5.73-2.16 8.04-3.53 2.53-1.5 3.06-3.79 1.77-6.53-3.76-7.99-3.49-8.79 4.2-12.35 1.69-.78 2.84-1.96 2.88-3.77.13-6.05-4.59-9.32-10.31-7.25-4.01 1.46-6.76.34-8.47-3.45-2.27-5.03-8.45-5.65-12.13-1.34-.94 1.1-1.12 2.04-.82 3.32 1.38 5.87 3.22 6.91 9.05 5.05 4.97-1.58 8.21.71 10.11 7.17.85 2.88-1.32 5.94-5.1 7.21-5.85 1.96-6.91 4.43-4.34 10.03.37.81.6 1.69 1.05 2.45 1.05 1.8 2.37 3.26 4.08 2.98ZM16.72 24.08c-.13 6.66 2.11 8.56 8.26 7.29 1.09-.23 2.18-.54 3.28-.56 3.77-.07 5.97 1.5 7.35 5.08.48 1.25.89 2.53 1.49 3.72.74 1.49 1.97 2.38 3.71 2.45 7.98.31 10.73-3.33 8.04-10.68-1.39-3.78-2.97-4.62-6.91-3.62-1.29.33-2.55.82-3.86 1.03-2.09.34-4.02-.05-5.39-1.86-4.06-5.37-2.28-10.29 4.21-11.66.87-.18 1.74-.36 2.6-.6 1.21-.34 1.78-1.23 1.97-2.44.73-4.62-1.95-7.35-6.48-6.56-.88.15-1.74.4-2.63.53-2.96.45-3.94 2.15-3.34 5 .84 4.04-.21 6.05-4.05 7.53-1.55.6-3.21.98-4.85 1.28-2.48.45-3.9 1.61-3.39 4.05Zm29.84 34.33c2.25.33 4.01-1.3 5.94-2.31 3.5-1.85 4.05-3.73 2.44-7.3-.32-.71-.61-1.43-.97-2.12-2.46-4.76.1-7.89 3.05-9.24 1.21-.55 2.51-.93 3.8-1.28 1.91-.52 2.68-2.06 2.91-3.68.72-5.14-3.77-8.84-8.8-7.41-5.19 1.47-8.49 0-10.59-4.7-1.69-3.79-4.03-4.75-7.89-3.32-1.93.71-4.1.95-4.09 3.86.03 5.06 2.47 7.09 7.4 5.89.97-.24 1.94-.52 2.91-.76 3.39-.84 5.65.38 7.42 3.99 2.28 4.66 2.22 9.36-.22 11.19-.51.38-1.25.44-1.84.72-2.53 1.18-5.03 2.4-7.56 3.57-1.22.56-1.96 1.51-2.23 2.75-.74 3.41 4.67 10.14 8.33 10.17Z" style="fill:#fcfdfc"/><path d="M61.19 53.27c-1.71.28-3.02-1.18-4.08-2.98-.44-.76-.67-1.64-1.05-2.45-2.57-5.6-1.51-8.07 4.34-10.03 3.78-1.27 5.95-4.33 5.1-7.21-1.91-6.46-5.14-8.75-10.11-7.17-5.83 1.85-7.67.81-9.05-5.05-.3-1.28-.12-2.22.82-3.32 3.69-4.3 9.86-3.68 12.13 1.34 1.71 3.79 4.46 4.91 8.47 3.45 5.71-2.07 10.44 1.2 10.31 7.25-.04 1.81-1.18 2.99-2.88 3.77-7.69 3.55-7.96 4.36-4.2 12.35 1.29 2.74.75 5.04-1.77 6.53-2.31 1.36-4.3 3.56-8.04 3.53Z" style="fill:#69bb04"/><path d="M16.72 24.08c-.51-2.44.91-3.6 3.39-4.05 1.64-.3 3.29-.69 4.85-1.28 3.83-1.48 4.89-3.49 4.05-7.53-.59-2.85.39-4.55 3.34-5 .88-.13 1.75-.38 2.63-.53 4.53-.79 7.21 1.94 6.48 6.56-.19 1.21-.76 2.1-1.97 2.44-.85.24-1.73.41-2.6.6-6.49 1.37-8.27 6.29-4.21 11.66 1.37 1.81 3.3 2.2 5.39 1.86 1.31-.21 2.57-.7 3.86-1.03 3.95-1 5.53-.17 6.91 3.62 2.69 7.35-.06 10.99-8.04 10.68-1.74-.07-2.97-.96-3.71-2.45-.6-1.19-1.01-2.48-1.49-3.72-1.38-3.58-3.58-5.15-7.35-5.08-1.1.02-2.19.33-3.28.56-6.15 1.28-8.4-.62-8.26-7.29Z" style="fill:#edab04"/><path d="M46.56 58.41c-3.66-.03-9.07-6.76-8.33-10.17.27-1.25 1.01-2.19 2.23-2.75 2.53-1.16 5.04-2.39 7.56-3.57.6-.28 1.34-.34 1.84-.72 2.44-1.82 2.5-6.53.22-11.19-1.77-3.61-4.02-4.82-7.42-3.99-.97.24-1.94.52-2.91.76-4.93 1.19-7.37-.83-7.4-5.89-.02-2.91 2.16-3.14 4.09-3.86 3.86-1.43 6.2-.47 7.89 3.32 2.1 4.7 5.41 6.17 10.59 4.7 5.03-1.43 9.52 2.28 8.8 7.41-.23 1.62-1 3.16-2.91 3.68-1.29.35-2.59.72-3.8 1.28-2.95 1.35-5.5 4.48-3.05 9.24.36.69.65 1.41.97 2.12 1.61 3.57 1.07 5.46-2.44 7.3-1.93 1.02-3.69 2.64-5.94 2.31Z" style="fill:#045fc5"/><text style="fill:#0366c2;font-family:CoreSansNRW01-SC45Regular,&quot;CoreSansNRW01 SC45Regular&quot;;font-size:23.33px" transform="translate(80.45 34.17)"><tspan x="0" y="0">E-VAS TEL</tspan></text><text style="fill:#7b7a7a;font-family:NoyhRW01-SemiLight,&quot;NoyhRW01 SemiLight&quot;;font-size:10.35px;font-weight:300" transform="translate(80.41 45.2)"><tspan x="0" y="0">Value Added Services</tspan></text></svg>