<svg xmlns="http://www.w3.org/2000/svg" xmlns:xlink="http://www.w3.org/1999/xlink" viewBox="0 0 191 64"><defs><linearGradient id="a" x1="25.07" x2="87.27" y1="32" y2="32" gradientUnits="userSpaceOnUse"><stop offset="0" stop-color="#000007"/><stop offset=".6" stop-color="#011527"/><stop offset=".86" stop-color="#303f51"/><stop offset="1" stop-color="#465264"/></linearGradient><linearGradient xlink:href="#a" id="c" x1="33.59" x2="107.52"/><linearGradient id="b" x1="34.72" x2="47.76" y1="29.22" y2="29.22" gradientUnits="userSpaceOnUse"><stop offset="0" stop-color="#997639"/><stop offset=".06" stop-color="#9e7c3d"/><stop offset=".15" stop-color="#ae8f48"/><stop offset=".25" stop-color="#c7ae5c"/><stop offset=".33" stop-color="#e2cf70"/><stop offset=".52" stop-color="#e1d484"/><stop offset=".66" stop-color="#e2cf70"/><stop offset="1" stop-color="#997639"/></linearGradient><linearGradient xlink:href="#b" id="d" x1="40.89" x2="56.85" y1="30.37" y2="30.37"/><linearGradient xlink:href="#b" id="e" x1="53.58" x2="62.79" y1="32.27" y2="32.27"/><linearGradient xlink:href="#b" id="f" x1="83.84" x2="158.08" y1="26.69" y2="26.69"/><linearGradient xlink:href="#b" id="g" x1="83.84" x2="158.08" y1="26.69" y2="26.69"/><linearGradient xlink:href="#b" id="h" x1="83.84" x2="158.08" y1="26.69" y2="26.69"/><linearGradient xlink:href="#b" id="i" x1="83.84" x2="158.08" y1="26.69" y2="26.69"/><linearGradient xlink:href="#b" id="j" x1="83.84" x2="158.08" y1="26.69" y2="26.69"/></defs><g data-name="Layer 1" style="isolation:isolate"><path d="M48.87 6.19s3.47 4.73 11.6 6.11c7.78 1.32 10.13-1.65 10.13-1.65s5.86 32.08-21.73 47.16C21.28 42.73 27.13 10.65 27.13 10.65s2.35 2.97 10.13 1.65c8.13-1.38 11.6-6.11 11.6-6.11Z" style="fill:url(#a)"/><path d="M70.6 10.65s-2.35 2.97-10.13 1.65c-8.13-1.38-11.6-6.11-11.6-6.11s-.04.06-.11.14v51.42s.07.04.11.06C76.46 42.73 70.6 10.65 70.6 10.65" style="fill:url(#c);mix-blend-mode:screen"/><path d="M34.72 19.05s7.83.6 8.19 9.2c.35 8.6 1.72 9.18 4.85 11.13 0 0-8.78-1.51-8.63-8.32s-.57-9.63-4.41-12.01" style="fill:url(#b)"/><path d="M40.89 20.53s5.07 1.61 4.27 10.66 8.58 10.04 9.9 8.34c0 0 5.17-3.19-2.07-12.44 0 0 4.32 8.27.43 10.34 0 0-4.69 1.39-4.46-5.91.24-7.3-1.9-9.51-8.07-10.99" style="fill:url(#d)"/><path d="M53.58 27.19s2.99 3.26 3.48 6.16c.49 2.93 4.46 4.65 5.74 3.79 0 0-2.18-.82-3.57-4.41s-3.47-4.92-5.65-5.53Z" style="fill:url(#e)"/><path d="M98.55 20.64c-1.23.07-1.76.38-1.85 1.22-.06.58-.13 1.41-.13 3.26v1.62c0 2.43-.39 4.22-1.62 5.49-.99 1-2.43 1.45-3.88 1.45-1.3 0-2.52-.28-3.47-1-1.3-.96-1.92-2.52-1.92-4.99v-4.91c0-1.9-.18-2-1.85-2.14v-.62h5.66v.62c-1.65.1-1.83.23-1.83 2.14v4.49c0 3.39 1.42 5.25 3.99 5.25 2.99 0 4.02-2.39 4.02-5.81v-1.58c0-1.86-.06-2.67-.17-3.32-.11-.79-.59-1.07-2.05-1.17v-.62h5.09v.62Z" style="fill:url(#f)"/><path d="M111.33 33.4v-.59c1.71-.17 1.79-.31 1.76-2.48l-.07-8.26h-.08l-5.16 11.2h-.42l-4.75-10.92h-.06l-.31 5.78c-.08 1.7-.08 2.57-.04 3.39.04.97.54 1.11 1.93 1.25v.62h-4.95v-.62c1.21-.11 1.62-.41 1.79-1.22.11-.72.24-1.6.41-3.81l.31-4.14c.18-2.67.06-2.79-1.83-2.97v-.62h3.6l4.78 10.11 4.85-10.11h3.7v.62c-1.85.15-1.97.23-1.9 2.26l.2 7.43c.07 2.17.13 2.31 1.96 2.48v.59h-5.7Z" style="fill:url(#g)"/><path d="M125.65 26.21c2.16.28 3.81 1.18 3.81 3.25 0 1.38-.76 2.45-2 3.12-1.09.58-2.52.82-4.2.82h-4.85v-.59c1.81-.13 1.95-.27 1.95-2v-8.17c0-1.76-.1-1.88-1.76-2v-.62h5.59c1.61 0 2.52.24 3.23.72.73.49 1.18 1.39 1.18 2.35 0 1.96-1.71 2.76-2.93 3.05v.07Zm-2.43-.27c2.29 0 3.24-.89 3.24-2.59 0-1.48-.83-2.64-2.75-2.64-.51 0-.99.11-1.17.25-.18.13-.24.37-.24 1v3.98zm-.91 4.81c0 1.53.41 1.93 1.74 1.91 1.65-.03 3.15-.87 3.15-3s-1.44-3.01-4.01-3.01h-.87v4.09Z" style="fill:url(#h)"/><path d="M143.59 33.58c-.25 0-.49-.01-.75-.04-1.71-.08-2.58-.53-3.55-1.88-.72-1-1.41-2.25-2.05-3.24-.38-.59-.75-.84-1.83-.84h-.59v3.21c0 1.73.2 1.88 1.89 2.03v.59H131v-.59c1.71-.14 1.9-.3 1.9-2.03v-8.16c0-1.76-.18-1.87-1.82-1.98v-.62h5.4c1.59 0 2.62.18 3.43.72.86.53 1.4 1.45 1.4 2.7 0 1.79-1.16 2.86-2.67 3.49.37.68 1.23 2.03 1.86 2.97.76 1.08 1.21 1.66 1.71 2.17.54.6 1 .83 1.48.94l-.1.58Zm-7.83-6.7c1.06 0 1.76-.17 2.3-.59.8-.62 1.13-1.42 1.13-2.53 0-2.21-1.45-3.02-3.02-3.02-.63 0-.97.08-1.13.2-.14.11-.23.35-.23.89v5.06h.95Z" style="fill:url(#i)"/><path d="M152.75 33.4v-.59c1.31-.18 1.5-.37 1.21-1.2-.3-.82-.68-1.84-1.13-3.02h-4.53c-.35.94-.63 1.74-.9 2.56-.45 1.25-.28 1.49 1.31 1.66v.59h-4.65v-.59c1.37-.21 1.66-.35 2.41-2.18l4.43-10.73.73-.18c1.35 3.64 2.71 7.3 4.1 10.92.68 1.81.97 2.04 2.34 2.18v.59h-5.33Zm-2.08-10.86h-.04c-.68 1.7-1.34 3.46-1.97 5.12h3.86z" style="fill:url(#j)"/><path d="M79.92 39.6h-.33c-.08-.38-.16-.65-.26-.82s-.24-.31-.44-.41-.42-.15-.66-.15c-.35 0-.62.1-.83.29s-.31.43-.31.7c0 .24.08.46.25.64.16.18.57.41 1.21.69s1.08.56 1.31.86.34.64.34 1.01c0 .33-.09.65-.26.93q-.255.435-.78.69c-.35.17-.72.26-1.12.26-.27 0-.55-.03-.82-.08q-.405-.075-.99-.27c.04-.41.07-.96.07-1.64h.34c.1.44.2.75.3.92s.26.32.47.43.44.17.69.17c.34 0 .64-.1.9-.29s.39-.47.39-.81c0-.28-.09-.54-.28-.76s-.6-.46-1.23-.74-1.05-.54-1.26-.79a1.35 1.35 0 0 1-.32-.89c0-.3.09-.59.26-.86s.42-.49.76-.65c.33-.16.68-.24 1.03-.24.43 0 .95.1 1.56.31-.02.43-.02.69-.02.77 0 .18 0 .42.02.73ZM84.12 44.16v-.26c.1-.02.18-.04.23-.04.36-.06.58-.12.65-.18.04-.04.08-.12.1-.27.02-.14.03-.55.03-1.24v-.59c-.25-.39-.65-1.01-1.21-1.86l-.79-1.16a.9.9 0 0 0-.21-.17c-.13-.07-.35-.15-.64-.22v-.26c.46.03.87.05 1.22.05s.77-.02 1.28-.05v.26c-.33.08-.53.15-.58.18s-.08.08-.08.12.03.1.07.18c.26.46.76 1.25 1.49 2.39.37-.59.84-1.38 1.43-2.4q.09-.15.09-.21c0-.04-.02-.07-.05-.09-.09-.06-.3-.12-.61-.17v-.26c.53.03.92.05 1.16.05.29 0 .65-.02 1.07-.05v.26c-.36.07-.61.15-.76.25s-.32.3-.53.6c-.44.66-.97 1.48-1.57 2.46v.26c0 1.02 0 1.58.02 1.69.01.1.04.18.1.23.08.06.33.13.73.21.03 0 .09.02.15.03v.26a26 26 0 0 0-1.31-.05c-.27 0-.76.02-1.49.05ZM94.23 39.6h-.33c-.08-.38-.16-.65-.26-.82s-.24-.31-.44-.41-.42-.15-.66-.15c-.35 0-.62.1-.83.29s-.31.43-.31.7c0 .24.08.46.25.64.16.18.57.41 1.21.69s1.08.56 1.31.86.34.64.34 1.01c0 .33-.09.65-.26.93q-.255.435-.78.69c-.35.17-.72.26-1.12.26-.27 0-.55-.03-.82-.08q-.405-.075-.99-.27c.04-.41.07-.96.07-1.64h.34c.1.44.2.75.3.92s.26.32.47.43.44.17.69.17c.34 0 .64-.1.9-.29s.39-.47.39-.81c0-.28-.09-.54-.28-.76s-.6-.46-1.23-.74c-.63-.27-1.05-.54-1.26-.79a1.35 1.35 0 0 1-.32-.89c0-.3.09-.59.26-.86s.42-.49.76-.65c.33-.16.68-.24 1.03-.24.43 0 .95.1 1.56.31-.02.43-.02.69-.02.77 0 .18 0 .42.02.73ZM97 39.63h-.34q.075-.765.15-1.71c1.28.03 2.2.05 2.75.05.46 0 1.29-.02 2.49-.05.04.65.08 1.22.13 1.71h-.33c-.14-.54-.22-.85-.27-.94s-.1-.16-.18-.2-.27-.06-.58-.06h-.96c-.02.78-.03 1.74-.03 2.89q0 1.605.03 2.16c0 .09.03.15.07.18.05.04.29.1.72.19.04 0 .1.02.18.04v.26c-.57-.03-1.09-.05-1.54-.05-.43 0-.86.02-1.31.05v-.26c.1-.03.18-.04.23-.05.4-.07.63-.12.69-.17.03-.02.05-.06.06-.1s.02-.37.03-.97c.01-.94.02-1.63.02-2.08 0-.79 0-1.48-.02-2.08h-1.22q-.24 0-.33.06c-.08.05-.15.16-.22.32-.05.12-.12.4-.23.83ZM105.79 40.67h1.05q.615 0 .72-.03a.4.4 0 0 0 .18-.13c.04-.07.1-.26.17-.58 0-.03.02-.08.04-.15h.29c-.03.48-.05.86-.05 1.12s.02.64.05 1.11h-.29c-.08-.42-.14-.66-.16-.71a.28.28 0 0 0-.15-.15c-.07-.03-.29-.05-.65-.05h-1.19l.02 2.58h1.99c.25 0 .41-.01.47-.04.11-.04.21-.1.29-.19s.24-.34.47-.76c.02-.04.06-.1.1-.18h.3c-.03.09-.22.64-.54 1.65-1.06-.03-2.02-.05-2.9-.05-.61 0-1.28.02-2.02.05v-.26l.71-.15c.11-.03.18-.06.21-.1.04-.06.07-.17.07-.35v-.08l.02-1.03v-3.0300000000000002c0-.39-.02-.62-.04-.67a.23.23 0 0 0-.08-.09 2.4 2.4 0 0 0-.4-.11l-.47-.11v-.26c.55.03 1.2.05 1.95.05.42 0 1.4-.02 2.96-.05 0 .51.04 1.01.1 1.5h-.3c-.12-.4-.21-.66-.28-.8a.4.4 0 0 0-.18-.18c-.1-.04-.31-.06-.64-.06h-1.76l-.03 1.42v.87ZM111.27 38.18v-.26c.48.03.85.05 1.11.05.29 0 .6-.02.93-.05.12.31.21.54.29.7.1.22.47 1.04 1.13 2.47.28.61.57 1.2.85 1.78l1.86-3.95c.11-.24.25-.58.4-1 .39.03.69.05.89.05.19 0 .52-.02.97-.05v.26c-.09.02-.15.04-.2.05-.4.08-.63.14-.68.18-.08.06-.11.21-.11.44v.06l-.02 1.39c0 1.75 0 2.82.02 3.19 0 .08.03.14.07.18s.29.1.74.19c.04 0 .09.02.17.04v.26c-.52-.03-.98-.05-1.38-.05s-.89.02-1.44.05v-.26c.11-.03.2-.05.26-.06.35-.07.56-.11.61-.14s.09-.07.1-.12c.03-.08.04-.32.04-.71v-3.84c-.26.53-.86 1.8-1.79 3.81-.26.55-.44.98-.57 1.27h-.25c-.65-1.46-1.45-3.15-2.39-5.08l.06 4.1c0 .33.03.51.08.56s.27.1.66.17c.04 0 .11.02.2.04v.26c-.5-.03-.91-.05-1.22-.05s-.72.02-1.23.05v-.26c.08-.02.15-.04.19-.04.38-.08.6-.14.64-.2.07-.08.11-.28.11-.6l.02-.99c.01-.9.02-1.78.02-2.62v-.54c0-.21-.02-.35-.04-.4a.3.3 0 0 0-.13-.12c-.11-.04-.36-.1-.74-.15-.06 0-.14-.03-.24-.05ZM125.51 39.6h-.33c-.08-.38-.16-.65-.26-.82s-.24-.31-.44-.41-.42-.15-.66-.15c-.35 0-.62.1-.83.29s-.31.43-.31.7c0 .24.08.46.25.64.16.18.57.41 1.21.69s1.08.56 1.31.86.34.64.34 1.01c0 .33-.09.65-.26.93q-.255.435-.78.69c-.35.17-.72.26-1.12.26-.27 0-.55-.03-.82-.08q-.405-.075-.99-.27c.04-.41.07-.96.07-1.64h.34c.1.44.2.75.3.92s.26.32.47.43.44.17.69.17c.34 0 .64-.1.9-.29s.39-.47.39-.81c0-.28-.09-.54-.28-.76s-.6-.46-1.23-.74-1.05-.54-1.26-.79a1.35 1.35 0 0 1-.32-.89c0-.3.09-.59.26-.86s.42-.49.76-.65c.33-.16.68-.24 1.03-.24.43 0 .95.1 1.56.31-.02.43-.02.69-.02.77 0 .18 0 .42.02.73ZM131.72 38.18v-.26c.58.03 1.2.05 1.88.05l1.94-.03c.66 0 1.19.1 1.58.29s.7.5.92.92.33.91.33 1.46c0 1.03-.35 1.87-1.04 2.54s-1.62 1-2.78 1c-.07 0-.33 0-.8-.02-.46-.02-.74-.02-.82-.02-.28 0-.68.02-1.21.05v-.26c.47-.09.74-.15.79-.16q.075-.03.12-.06c.02-.02.04-.06.05-.1.01-.06.03-.31.03-.75.02-.95.03-1.65.03-2.08l-.03-1.93v-.15c0-.15-.04-.24-.12-.28-.05-.03-.34-.1-.86-.22Zm1.86 5.45c.47.06.87.09 1.18.09q.75 0 1.23-.24c.46-.24.81-.58 1.05-1.04.24-.45.36-1.01.36-1.67 0-.35-.04-.66-.12-.95s-.19-.51-.32-.68a1.9 1.9 0 0 0-.76-.58c-.31-.13-.77-.2-1.36-.2-.36 0-.78.02-1.26.07-.02.77-.03 1.64-.03 2.62 0 1.03 0 1.89.03 2.59ZM140.28 38.18v-.26c.48.03.85.05 1.11.05.29 0 .6-.02.93-.05.12.31.21.54.29.7.1.22.47 1.04 1.13 2.47.28.61.57 1.2.85 1.78l1.86-3.95c.11-.24.25-.58.4-1 .39.03.69.05.89.05.19 0 .52-.02.97-.05v.26c-.09.02-.15.04-.2.05-.4.08-.63.14-.68.18-.08.06-.11.21-.11.44v.06l-.02 1.39c0 1.75 0 2.82.02 3.19 0 .08.03.14.07.18s.29.1.74.19c.04 0 .09.02.17.04v.26c-.52-.03-.98-.05-1.38-.05s-.89.02-1.44.05v-.26c.11-.03.2-.05.26-.06.35-.07.56-.11.61-.14s.09-.07.1-.12c.03-.08.04-.32.04-.71v-3.84c-.26.53-.86 1.8-1.79 3.81-.26.55-.44.98-.57 1.27h-.25c-.65-1.46-1.45-3.15-2.39-5.08l.06 4.1c0 .33.03.51.08.56s.27.1.66.17c.04 0 .11.02.2.04v.26c-.5-.03-.91-.05-1.22-.05s-.72.02-1.23.05v-.26c.08-.02.15-.04.19-.04.38-.08.6-.14.64-.2.07-.08.11-.28.11-.6l.02-.99c.01-.9.02-1.78.02-2.62v-.54c0-.21-.02-.35-.04-.4a.3.3 0 0 0-.13-.12c-.11-.04-.36-.1-.74-.15-.06 0-.14-.03-.24-.05ZM156.31 43.09l.18.33c-.47.3-.91.51-1.34.65s-.87.21-1.33.21c-.58 0-1.11-.13-1.59-.4q-.72-.405-1.08-1.14a3.55 3.55 0 0 1-.37-1.63c0-.98.32-1.77.95-2.4.63-.62 1.46-.93 2.5-.93.64 0 1.35.13 2.13.4v.58c0 .37.02.77.07 1.18h-.37c-.11-.51-.22-.87-.34-1.06s-.32-.35-.59-.46c-.27-.12-.61-.17-1.01-.17-.84 0-1.47.3-1.9.91-.33.47-.5 1.06-.5 1.78 0 .85.23 1.52.7 2.01.46.49 1.08.74 1.83.74.33 0 .64-.04.95-.13.31-.08.68-.24 1.12-.46ZM164.2 43.09l.18.33c-.47.3-.91.51-1.34.65s-.87.21-1.33.21c-.58 0-1.11-.13-1.59-.4q-.72-.405-1.08-1.14a3.55 3.55 0 0 1-.37-1.63c0-.98.32-1.77.95-2.4.63-.62 1.46-.93 2.5-.93.64 0 1.35.13 2.13.4v.58c0 .37.02.77.07 1.18h-.37c-.11-.51-.22-.87-.34-1.06s-.32-.35-.59-.46c-.27-.12-.61-.17-1.01-.17-.84 0-1.47.3-1.9.91-.33.47-.5 1.06-.5 1.78 0 .85.23 1.52.7 2.01.46.49 1.08.74 1.83.74.33 0 .64-.04.95-.13.31-.08.68-.24 1.12-.46Z"/></g></svg>