<svg xmlns="http://www.w3.org/2000/svg" id="Layer_1" data-name="Layer 1" viewBox="0 0 191 64"><defs><style>.cls-1{fill:#1c3faa}</style></defs><path d="M41.39 41.56c.76-1.19.9-2.92 0-4.07.03-.68 2.75-.35 3.36-.42V19.94H32.11v24.43H47.7c.08 0 1.05.98 1.12 1.13.6 1.29-.3 2.88-1.7 3.07-5.04-.46-11.36.68-16.25 0-1.83-.26-3.1-1.99-3.27-3.75-.79-8.16.62-17.56 0-25.86.13-1.45 1.61-3.15 3.02-3.44 2.04-.41 12.85-.36 15.07-.04 1.88.27 3.09 1.93 3.27 3.75.58 6.13-.44 13.15-.03 19.37.04.89-2.04 2.96-2.65 2.96h-4.91ZM74.24 38.47h-4.21v-8.28c0-1.75-4.21-1.43-4.21-.28v8.57h-4.21v-8c0-1.24-2.21-1.89-3.37-1.4-.13.06-1.13 1.04-1.13 1.12v8.28H52.9v-8.57c0-.28.67-1.85.89-2.2 1.43-2.32 5.07-3.08 7.54-2.3.65.21 1.87 1.18 2.15 1.22.19.03 1.64-.9 2.18-1.09 2.48-.86 5.6-.43 7.32 1.69.32.39 1.26 2.04 1.26 2.39zM97.83 19.94v6.46c6.42-4.49 12.67 3.61 8.66 9.64-2.67 4.01-9.98 3.7-12.08-.74-.14-.31-.79-2.14-.79-2.3V19.94zm1.89 9.04c-2.91.66-2.53 7.44 2.06 5.99 2.6-.82 2.4-7.01-2.06-5.99M153.72 37.35v6.46h-4.21v-12.5c0-.65.86-2.87 1.28-3.49 2.81-4.12 10.35-3.65 12.25 1.19 2.52 6.41-3.4 12.74-9.32 8.34m2.46-8.65c-3.37.48-3.03 6.51.48 6.42 3.89-.1 3.55-7-.48-6.42M91.03 31.99c0 3.87-3.14 7.01-7.01 7.01s-7.01-3.14-7.01-7.01 3.14-7.01 7.01-7.01 7.01 3.14 7.01 7.01m-8.17-3.01c-2.1.62-2.33 5.25.07 5.99 5.3 1.65 5.26-7.57-.07-5.99M120.3 25.55v3.37h-6.04l-.15.99c3.9-.12 8.53.65 7.18 5.76-.23.86-2.02 2.8-2.82 2.8h-8V35.1h6.6l.42-.7c-1.19-1.35-3.25-.39-5.01-.9-2.95-.85-3.5-4.95-1.43-6.95.17-.16 1.43-1.01 1.52-1.01h7.72ZM127.18 38.47c-.56-.12-1.9-1.51-2.13-2.09-.58-1.46 0-7.2-.26-7.46l-2.13-.26-.12-3.11h2.25l.26-3.25h3.69l.26 3.25h3.37v3.37H129v5.76c.44.86 3.13.18 3.37.42v3.37c-1.51-.22-3.81.3-5.2 0Z" class="cls-1"/><circle cx="38.27" cy="39.47" r="2.44" class="cls-1"/><path d="M138.61 25.47c-5.38 1.68-6.11 9.64-1.1 12.22.24.13 1.92.78 2.02.78h6.04V35.1h-4.91c-.57 0-2.05-.95-2.11-1.68h8.42c.78-5.34-2.86-9.66-8.37-7.95Zm-.06 4.39c.14-1.79 4.05-1.64 4.49 0z" class="cls-1"/></svg>