<svg xmlns="http://www.w3.org/2000/svg" viewBox="263.59 24 234.75 218.98"><path fill="#F1A747" d="M396 24c4.455.51 6.939 1.697 10 5 .947 2.503 1.645 5.013 2.336 7.598 1.322 4.782 2.82 6.845 6.976 9.59 3.123 1.64 6.298 2.82 9.688 3.812v2l2.234.836C435.254 56.21 441.72 62.114 448 68l2.625 2.438C465.316 86.288 465.316 86.288 467 95v-5c8.642.987 15.422 3.794 23 8v2l2.313.75c3.057 1.422 3.982 2.378 5.687 5.25.356 2.666.356 2.666.328 5.691l-.015 3.366-.063 3.505-.016 3.424c-.065 7.054-.51 14-1.234 21.014v1h1q.08 4.406.125 8.813c.017.833.034 1.666.05 2.525l.02 2.432.032 2.237C498 162 498 162 496 165c-2.062.938-2.062.938-5 2l-2.082 1.012c-4.941 2.399-8.426 3.455-13.918 2.988l.473-1.715.59-2.222.597-2.215L477 163l-1-1-.323 1.652c-1.175 5.669-2.81 10.964-4.927 16.348l-.933 2.382c-3.37 8.348-8.068 14.781-13.817 21.618l-1.348 2.395c-1.835 2.893-3.822 4.795-6.402 7.042l-2.707 2.364L443 218l-1.824 1.668C433.454 226.641 424.758 231.52 415 235l-2.613 1.023A189 189 0 0 1 404 239l-2.672.918c-15.547 4.475-34.944 3.943-50.328-.918l-3.453-1.066c-13.471-4.496-24.446-10.196-34.902-19.676-2.496-2.417-2.496-2.417-5.645-3.258l-1-4-3-1c-1.418-1.8-2.787-3.64-4.125-5.5-3.008-3.996-3.008-3.996-7.254-6.309a65 65 0 0 0-4.535-.097c-3.548-.16-5.427-1.844-8.086-4.094v-2h-2a91 91 0 0 1-4.937-6.187l-1.342-1.694c-7.174-9.783-7.215-22.052-7.112-33.704.016-2.177 0-4.352-.02-6.528-.026-16.864-.026-16.864 4.721-22.42 2.395-2.14 4.72-3.479 7.706-4.635 3.899-2.393 4.661-5.094 5.921-9.27 2.204-6.575 4.849-12.122 8.547-18.011 1.462-2.46 2.53-4.869 3.516-7.551h2l.723-1.64C301.907 70.782 311.533 60.488 322 57v-2c14-8.365 31.402-15.976 48-15l1-4c2.28-.792 3.51-1.193 5.797-.293l1.953 1.105c6.66 3.235 13.975 3.51 21.25 4.188l-2-5-1 2-9-1-1-4 1.46-1.207 1.915-1.605 1.898-1.583c1.95-1.687 1.95-1.687 3.727-4.605m73 73v1l11 1c-4.216-2.108-6.398-2.177-11-2m15 4 2 3 2-1zm4 3c1.309 3.122 1.309 3.122 4 5-1.309-3.122-1.309-3.122-4-5m4 5 1 11c2.214-1.754 2.214-1.754 2.047-3.91l-.297-2.153-.266-2.16L494 110zm0 11 1 2Zm-1 2 1 2Zm2 3 1 2Zm1 2 2 4-1-4zm-229 5c.602 6.327 1.622 12.376 3.063 18.563l.564 2.478q.68 2.98 1.373 5.959h1c-.396-9.35-2.576-18.014-5-27zm229 16v3Zm-3 4-4 5 4-2zm-220 7c.516 7.882 2.092 15.345 4 23h1c-.516-7.882-2.092-15.345-4-23zm5 23 1 5 1-2zm4 8 1 2c2.24.603 4.486.956 6.773 1.34 2.511.744 3.557 1.683 5.227 3.66-1.119-3.726-1.119-3.726-4-6-1.537-.225-3.08-.408-4.625-.562l-2.477-.254z"/><path fill="#6D1523" d="m449.563 99.625 2.394-.042c4.422.037 6.697.567 10.043 3.417l3-1c6.827-.47 13.408.08 18.902 4.547 2.72 2.893 3.986 4.727 4.598 8.703C488 118 488 118 486 121h-2c1.46 2.504 2.915 4.89 4.688 7.188C490 130 490 130 490 132h2c.765 7.578.01 12.207-4.492 18.418L486 152h-2l-1 3c-5.258 2.629-11.264 2.935-17 2-4.229-2.04-7.69-4.69-11-8l-.113 1.863-.2 2.45-.175 2.425c-.605 2.673-1.36 3.607-3.512 5.262-4.655 1.19-9.228 1.239-14 1l-2-2-1.727 1.89c-4.916 3.169-9.908 3.298-15.648 3.86l-3.367.379c-5.447.59-10.78 1.022-16.258.871h-2l-1.227 1.96C393 171 393 171 390.04 171.54l-3.414.085c-4.386.131-7.632.53-11.625 2.375-5.112 2-9.872 3.306-15.152 1.102a109 109 0 0 1-4.149-2.227c-1.677-1.028-1.677-1.028-3.699-.875a1049 1049 0 0 0-5 4c-3.1 1.034-5.314 1.134-8.562 1.125l-2.942.008C333 177 333 177 331 176l-.25 2.75c-.75 3.25-.75 3.25-2.25 5.688-3.9 2.436-7.148 1.543-11.5.562a158 158 0 0 1-7.738-2.477c-2.537-.587-3.85-.459-6.262.477l-2 2c-2.716.485-5.26.805-8 1l-2.645.2-2.668.113-2.488.113C283 186 283 186 281.425 184.273c-1.554-2.479-2.002-4.19-2.417-7.07l-.44-2.871-.443-3.082a420 420 0 0 0-5.55-29.23c-1.194-5.44-2.282-10.459-1.575-16.02 3.224-3.598 7.084-5.042 11.563-6.687l3.378-1.262c9.741-3.347 20.637-3.538 30.059.949 7.33 3.737 11.19 10.487 14 18l1.719-.984c2.468-1.1 4.097-1.284 6.781-1.266l2.281-.016c2.449.293 4.092 1.048 6.219 2.266l.438-2.187c2.47-4.448 5.76-6.28 10.562-7.813 3.857-.219 7.625-.123 11.484.023 3.168-.02 4.99-.265 7.829-1.523 4.136-1.683 7.037-1.687 11.425-1.54 2.542.045 4.793-.38 7.262-.96h4c2.202-.616 4.39-1.288 6.563-2 6.118-2 6.118-2 9.437-2l-1-3.187c-1.501-5.723-1.501-5.723-1-8.813 2.322-3.315 4.471-4.312 8.316-5.047q2.619-.384 5.247-.703l2.794-.366a175 175 0 0 1 19.205-1.259"/><path fill="#EEA442" d="M467 90c8.642.987 15.422 3.794 23 8v2l2.313.75c3.057 1.422 3.982 2.378 5.687 5.25.356 2.666.356 2.666.328 5.691l-.015 3.366-.063 3.505-.016 3.424c-.065 7.054-.51 14-1.234 21.014v1h1q.08 4.406.125 8.813c.017.833.034 1.666.05 2.525l.02 2.432.032 2.237C498 162 498 162 496 165c-2.062.938-2.062.938-5 2l-2.082 1.012c-4.941 2.399-8.426 3.455-13.918 2.988l.473-1.715.59-2.222.597-2.215L477 163l-1-1-.323 1.652c-1.175 5.669-2.81 10.964-4.927 16.348l-.933 2.382c-3.37 8.348-8.068 14.781-13.817 21.618l-1.348 2.395c-1.835 2.893-3.822 4.795-6.402 7.042l-2.707 2.364L443 218l-1.824 1.668C433.454 226.641 424.758 231.52 415 235l-2.613 1.023A189 189 0 0 1 404 239l-2.672.918c-15.547 4.475-34.944 3.943-50.328-.918l-3.453-1.066c-13.471-4.496-24.446-10.196-34.902-19.676-2.496-2.417-2.496-2.417-5.645-3.258l-1-4-3-1c-1.418-1.8-2.787-3.64-4.125-5.5-3.008-3.996-3.008-3.996-7.254-6.309a65 65 0 0 0-4.535-.097c-3.548-.16-5.427-1.844-8.086-4.094v-2h-2a91 91 0 0 1-4.937-6.187l-1.342-1.694c-7.174-9.783-7.215-22.052-7.112-33.704.016-2.177 0-4.352-.02-6.528-.026-16.864-.026-16.864 4.721-22.42 3.201-2.859 6.887-4.566 10.69-6.467l2-3v3l2.387-.656c13.088-3.346 23.946-3.403 36.613 1.656l3 2-1 2-1.937-1.375c-11.169-5.926-26.25-4.734-38.141-1.613-5.629 1.904-10.576 3.968-13.922 8.988-.43 8.639 2.53 17.78 4.375 26.188q.69 3.184 1.38 6.37.455 2.103.917 4.205c.76 3.476 1.469 6.95 2.083 10.454l.37 2.05c.33 1.85.643 3.702.956 5.555 1.035 3.58 2.285 5.557 4.919 8.178 7.18 1.044 16.803-.525 23.066-4.219C308 184 308 184 310.48 184.68l2.707 1.195c5.015 1.97 9.438 3.245 14.813 2.125 3.045-2.186 4.535-4.581 6-8l3.5.188c5.365.009 10.104-1.59 14.563-4.563 2.803-.904 4.348.407 6.882 1.625 6.069 2.215 11.467 1.06 17.155-1.533 3.925-1.481 8.14-1.556 12.29-1.889 4-.394 5.98-.785 8.61-3.828 1.858-.031 3.722-.06 5.574.09 2.857-.106 5.432-.815 8.185-1.544 3.952-.963 7.97-1.512 11.991-2.108q2.493-.375 4.984-.754l2.195-.327c2.089-.332 2.089-.332 4.178-.896 2.448-.596 4.69-.518 7.205-.461 4.365.047 8.396-.237 12.688-1l.875-2.875C456 157 456 157 458 155l2.625 2c5.568 3.2 12.172 2.79 18.375 2 4.49-1.763 7.208-3.904 10.313-7.562l2.05-2.38c3.945-4.961 3.206-10.974 2.637-17.058-1.06-2.511-2.196-3.914-4-6v-2h-2l3-6c.37-3.571.37-5.416-1.574-8.484l-2.113-2.266-2.075-2.297c-4.731-4.129-9.54-4.32-15.55-4.578l-2.245-.117A785 785 0 0 0 462 100v-1h6zm2 7v1l11 1c-4.216-2.108-6.398-2.177-11-2m15 4 2 3 2-1zm4 3c1.309 3.122 1.309 3.122 4 5-1.309-3.122-1.309-3.122-4-5m4 5 1 11c2.214-1.754 2.214-1.754 2.047-3.91l-.297-2.153-.266-2.16L494 110zm0 11 1 2Zm-1 2 1 2Zm2 3 1 2Zm1 2 2 4-1-4zm-229 5c.602 6.327 1.622 12.376 3.063 18.563l.564 2.478q.68 2.98 1.373 5.959h1c-.396-9.35-2.576-18.014-5-27zm229 16v3Zm-3 4-4 5 4-2zm-220 7c.516 7.882 2.092 15.345 4 23h1c-.516-7.882-2.092-15.345-4-23zm5 23 1 5 1-2zm4 8 1 2c2.24.603 4.486.956 6.773 1.34 2.511.744 3.557 1.683 5.227 3.66-1.119-3.726-1.119-3.726-4-6-1.537-.225-3.08-.408-4.625-.562l-2.477-.254z"/><path fill="#DA9946" d="M396 24c4.455.51 6.939 1.697 10 5 .947 2.503 1.645 5.013 2.336 7.598 1.322 4.782 2.82 6.845 6.976 9.59 3.123 1.64 6.298 2.82 9.688 3.812v2l2.234.836C435.254 56.21 441.72 62.114 448 68l2.625 2.438C468 89.184 468 89.184 468 99l2.563.191c9.48 1.024 14.146 3.592 20.12 10.856 1.912 2.836 1.787 4.594 1.317 7.953-2 3.375-2 3.375-4 6h2c4.108 4.12 5.442 8.734 5.75 14.438-.313 7.954-3.923 11.894-9.445 17.187-5.58 4.934-10.667 4.698-17.828 4.676-4.56-.395-6.88-1.56-10.477-4.301l-1.562 3.375c-1.671 2.852-2.285 3.55-5.375 5.063-4.542.925-9.208.58-13.817.511-3.625.057-6.836.595-10.355 1.41-4.694 1.04-9.44 1.792-14.18 2.588-3.973.638-3.973.638-7.711 2.053-2.01-.064-4.02-.13-6.027-.258-2.072.05-2.072.05-3.243 1.703-2.716 2.441-5.98 2.274-9.48 2.555-4.275.351-8.025.748-11.96 2.54-7.013 3.114-13.69 1.726-20.673-.884L352 176c-.43.47-.859.941-1.3 1.426-2.976 2.756-6.81 3.623-10.829 3.52-.7-.045-1.4-.088-2.121-.133L334 181c-1.917 2.25-1.917 2.25-3 5-1.55 1.921-2.446 2.872-4.875 3.434-5.838.01-10.31-1.399-15.645-3.754-2.418-.932-2.418-.932-4.414.101L304 187c-14.196 4.094-14.196 4.094-21 3-5.443-4.954-6.257-10.117-7.437-17.187q-.609-3.345-1.227-6.688l-.642-3.516c-1.403-7.292-3.122-14.519-4.815-21.748l-.742-3.248-.666-2.85c-.709-4.156-1.108-7.519.841-11.326 9.73-8.824 23.218-10.009 35.77-9.687 8.21.524 15.197 1.996 20.918 8.25l1.164 2.547c1.379 2.994 2.486 5.125 4.836 7.453 5.863 1.446 11.973 1.584 17.426-1.27 1.744-1.475 3.141-2.956 4.574-4.73 1.663-1.76 2.826-2.913 5-4 2.167.006 4.334.054 6.5.125 4.441.04 8.126-.066 12.313-1.562 5.266-1.87 10.41-2.033 15.948-2.184 3.655-.123 6.968-.474 10.512-1.406C407 116 407 116 411 116l-1-3c-.514-6.277.07-9.087 4-14l-3-3-1 7-5 1-6-7-3 3 2-6c3.372 1.124 3.72 1.704 5.563 4.563 1.187 1.906 1.187 1.906 2.437 3.437h2V91h2l1.938 2.438c1.872 2.8 1.872 2.8 5.062 3.562-2.47-5.096-6.439-8.743-11-12l-4-1 2 9-2.375-2c-2.34-2.202-2.34-2.202-4.625-2l-.55 1.898-.762 2.477-.739 2.46C394 98 394 98 391 100c-1-1-1-1-1.312-3.687.385-4.089 1.946-6.014 4.312-9.313.77-2.226.77-2.226 1-4l-2.062-.5C384.233 78.055 380.35 68.714 377 60c-1.83-5.726-2.218-11.013-2-17 4.264.597 7.354 2.093 11.063 4.25l3.097 1.766c4.57 3.193 7.055 6.938 9.277 11.984l1.286 2.883c.884 2.157 1.7 4.343 2.46 6.547 2.697 8.265 2.697 8.265 8.926 13.902 4.761 1.682 8.624 1.231 13.266-.832L427 82h2c.686-1.323 1.348-2.66 2-4l1.125-2.312c2.083-6.398.652-10.912-2.125-16.688l-1-3c-1.85-1.05-1.85-1.05-4-2l-1.832-1.43c-2.276-1.648-4.459-2.608-7.043-3.695C410.522 46.123 407.637 42.61 405 37c-.7-2.29-.7-2.29-1.187-4.437-.44-3.811-.44-3.811-3.813-5.563-2.057.014-2.057.014-4 1a125 125 0 0 0-3 4l-3 1-1 2 7 1 1-4h3l.48 1.723C403.342 43.19 407.26 48.293 416 53l-1 2 2.047.848c8.205 3.687 8.205 3.687 10.64 7.527 1.552 4.284 1.634 6.274.313 10.625-3.62 6.31-3.62 6.31-7 8-7.216.582-7.216.582-10.074-1.54-2.448-3.127-3.614-6.43-4.863-10.147C401.77 58.329 396.41 47.616 385 41v-1c5.152-.09 9.92.153 15 1l-2-5-1 2-9-1-1-4 1.46-1.207 1.915-1.605 1.898-1.583c1.95-1.687 1.95-1.687 3.727-4.605m31.563 77.25c-.894.11-1.787.218-2.707.33-3.812.56-6.29 1.017-9.465 3.28-1.593 2.45-1.76 3.316-1.204 6.14l.356 2c.459 2.008.945 4.005 1.457 6l-3.875.813c-4.364.95-8.545 2.244-12.766 3.699-2.76.571-4.639.129-7.359-.512-1.673.3-3.34.636-5 1l-2.812-.125c-3.325-.063-3.325-.063-6.625 1.625-4.088 1.714-7.601 1.542-12 1.375-6.666-.14-11.5.578-16.563 5.125-1.638 2.612-1.638 2.612-2 5l-1.719-.984c-2.468-1.1-4.097-1.284-6.781-1.266l-2.281-.016c-2.449.293-4.092 1.048-6.219 2.266l-1.625-3.5c-3.927-7.743-7.893-13.607-16.375-16.5-11.713-2.894-23.919-1.25-34.555 4.344-3.411 2.075-3.411 2.075-6.445 4.656-.543 7.374 1.162 14.095 2.813 21.25 2.14 9.533 4.03 18.999 5.16 28.708.68 5.665.68 5.665 4.027 10.042 2.234.522 2.234.522 4.688.313.881-.04 1.763-.078 2.671-.118L293 186l2.328-.133c3.992-.217 3.992-.217 7.094-2.453C304 182 304 182 306.27 182.074l2.543.613 2.69.63c1.938.53 3.85 1.151 5.747 1.808 3.167 1.008 5.448 1.306 8.75.875 3.132-2.2 3.885-3.502 4.75-7.25L331 176l2 1c6.28.534 11.615.635 17-3 1.816-1.561 1.816-1.561 3-3l2.813 1.938c4.609 2.982 7.744 3.5 13.187 3.062 1.5-.617 2.98-1.288 4.438-2 4.534-2.194 7.557-2.242 12.562-2 5.401-.231 5.401-.231 9.438-3.562.515-.805 1.03-1.61 1.562-2.438l1 1c5.011-.091 10.007-.573 15-1l2.294-.184c2.28-.189 4.555-.405 6.831-.629l2.15-.175c4.705-.504 7.319-1.745 10.725-5.012l2 2c5.456.37 9.795-.126 15-2 2.398-2.398 2.343-3.333 2.625-6.625l.227-2.477L455 149l1.39 1.242 1.86 1.633 1.828 1.617C465.4 157.667 470.421 157.64 477 157c2.58-.767 4.611-1.726 7-3v-2l3-1c3.986-4.2 5.327-8.263 5.313-14-.08-1.668-.175-3.336-.313-5h-2l-.812-2.312c-1.154-2.611-2.174-3.762-4.188-5.688l-1-3 3-1c1.479-2.958 1.436-4.702 1-8-2.47-4.449-5.608-7.186-10.375-8.937-4.981-1.37-9.912-1.87-14.937-.376L461 103l-1.082-1.457c-3.07-2.47-6.522-1.983-10.293-1.918l-2.508.026c-6.565.15-13.045.747-19.555 1.599"/><path fill="#5C1829" d="m449.563 99.625 2.394-.042c4.421.036 6.696.566 10.043 3.417l3-1c6.827-.47 13.408.08 18.902 4.547 2.72 2.893 3.986 4.727 4.598 8.703C488 118 488 118 486 121h-2c1.46 2.504 2.915 4.89 4.688 7.188C490 130 490 130 490 132h2c.765 7.578.01 12.207-4.492 18.418L486 152h-2l-1 3c-5.258 2.629-11.264 2.935-17 2-4.229-2.04-7.69-4.69-11-8l-.113 1.863-.2 2.45-.175 2.425c-.605 2.673-1.36 3.607-3.512 5.262-4.655 1.19-9.228 1.239-14 1l-2-2-2.125 1.938c-5.39 3.867-11.49 3.19-17.875 3.062v-1l2.922-.297 3.828-.453 3.797-.422c3.785-.908 4.952-1.964 7.453-4.828 1.938.188 1.938.188 4 1 4.902 1.54 9.193.45 14-1 1.26-1.034 1.26-1.034 1.098-3.285l-.036-2.778-.027-2.785L452 147l-2 2-1-1-1 6-9 1 1-3 7 1-.398-2.34c-1.354-8.313-2.167-16.573-2.727-24.972l-.262-3.725q-.312-4.48-.613-8.963l11-1v-6q-6.81.569-13.617 1.172-2.317.203-4.636.395c-2.217.185-4.433.382-6.65.581l-2.105.168c-1.672.156-3.335.411-4.992.684l-1 2 1-4 11-1c-3.692-.923-6.481-1.103-10.25-1.062l-3.266.027L417 105l1-2c3.05-.88 6.234-1.195 9.375-1.625l2.836-.393c6.452-.828 12.846-1.3 19.351-1.357"/><path fill="#F9FAFB" d="M312.5 124.063c4.367 2.56 7.724 5.085 9.5 9.937 1.147 6.376.816 11.502-2.75 17a96 96 0 0 1-3.25 4l-2.187 2.563C312 159 312 159 309 159v2l17 2-3 15c-9.266-1.853-17.488-4.906-26-9v9l-10 1c-.11-.715-.22-1.43-.332-2.168-.841-5.287-1.785-10.502-3.043-15.707-1.471-6.194-2.664-12.426-3.812-18.687l-.543-2.924-.5-2.768-.45-2.479C278 132 278 132 278 128q2.311-.94 4.625-1.875l2.602-1.055c9.102-3.512 18.039-5.21 27.273-1.007"/><path fill="#D8DADD" d="M462 99c3.338.28 6.634.413 9.98.479 5.974.23 9.868 1.632 14.356 5.572l2.039 2.261 2.086 2.239c1.934 3.078 1.97 4.872 1.539 8.449-2 3.375-2 3.375-4 6h2c4.108 4.12 5.442 8.734 5.75 14.438-.313 7.954-3.923 11.894-9.445 17.187-5.58 4.934-10.667 4.698-17.828 4.676-4.56-.395-6.88-1.56-10.477-4.301l-1.562 3.375c-1.671 2.852-2.285 3.55-5.375 5.063-4.542.925-9.208.58-13.817.511-3.625.057-6.836.595-10.355 1.41-4.694 1.04-9.44 1.792-14.18 2.588-3.973.638-3.973.638-7.711 2.053-2.01-.064-4.02-.13-6.027-.258-2.072.05-2.072.05-3.243 1.703-2.716 2.441-5.98 2.274-9.48 2.555-4.275.351-8.025.748-11.96 2.54-7.013 3.114-13.69 1.726-20.673-.884L352 176c-.43.47-.859.941-1.3 1.426-2.976 2.756-6.81 3.623-10.829 3.52-.7-.045-1.4-.088-2.121-.133L334 181c-1.917 2.25-1.917 2.25-3 5-1.55 1.921-2.446 2.872-4.875 3.434-5.838.01-10.31-1.399-15.645-3.754-2.418-.932-2.418-.932-4.414.101L304 187c-14.196 4.094-14.196 4.094-21 3-5.443-4.954-6.257-10.117-7.437-17.187q-.609-3.345-1.227-6.688l-.642-3.516c-1.403-7.292-3.122-14.519-4.815-21.748l-.742-3.248-.666-2.85c-.709-4.156-1.108-7.519.841-11.326 9.73-8.824 23.218-10.009 35.77-9.687 8.21.524 15.197 1.996 20.918 8.25l1.164 2.547c1.377 2.99 2.493 5.123 4.836 7.453 5.209 1.351 9.765 1.164 15 0 2.553-1.534 4.26-3.022 6.191-5.273 3.189-3.044 6.642-3.68 10.957-3.852l6.438.25c2.765-.101 4.698-.386 7.309-1.098 4.164-1.134 8.12-1.346 12.418-1.465 6.161-.252 11.68-1.03 17.585-2.94C409 117 409 117 412 117l-.36-2.23c-1.044-7.91-1.044-7.91.798-11.832 6.606-4.995 16.12-4.536 24.062-5.063l3.59-.262C457.007 96.425 457.007 96.425 462 99m-34.437 2.25c-.894.11-1.787.218-2.707.33-3.812.56-6.29 1.017-9.465 3.28-1.593 2.45-1.76 3.316-1.204 6.14l.356 2c.459 2.008.945 4.005 1.457 6l-3.875.813c-4.364.95-8.545 2.244-12.766 3.699-2.76.571-4.639.129-7.359-.512-1.673.3-3.34.636-5 1l-2.812-.125c-3.325-.063-3.325-.063-6.625 1.625-4.088 1.714-7.601 1.542-12 1.375-6.666-.14-11.5.578-16.563 5.125-1.638 2.612-1.638 2.612-2 5l-1.719-.984c-2.468-1.1-4.097-1.284-6.781-1.266l-2.281-.016c-2.449.293-4.092 1.048-6.219 2.266l-1.625-3.5c-3.927-7.743-7.893-13.607-16.375-16.5-11.713-2.894-23.919-1.25-34.555 4.344-3.411 2.075-3.411 2.075-6.445 4.656-.543 7.374 1.162 14.095 2.813 21.25 2.14 9.533 4.03 18.999 5.16 28.708.68 5.665.68 5.665 4.027 10.042 2.234.522 2.234.522 4.688.313.881-.04 1.763-.078 2.671-.118L293 186l2.328-.133c3.992-.217 3.992-.217 7.094-2.453C304 182 304 182 306.27 182.074l2.543.613 2.69.63c1.938.53 3.85 1.151 5.747 1.808 3.167 1.008 5.448 1.306 8.75.875 3.132-2.2 3.885-3.502 4.75-7.25L331 176l2 1c6.28.534 11.615.635 17-3 1.816-1.561 1.816-1.561 3-3l2.813 1.938c4.609 2.982 7.744 3.5 13.187 3.062 1.5-.617 2.98-1.288 4.438-2 4.534-2.194 7.557-2.242 12.562-2 5.401-.231 5.401-.231 9.438-3.562.515-.805 1.03-1.61 1.562-2.438l1 1c5.011-.091 10.007-.573 15-1l2.294-.184c2.28-.189 4.555-.405 6.831-.629l2.15-.175c4.705-.504 7.319-1.745 10.725-5.012l2 2c5.456.37 9.795-.126 15-2 2.398-2.398 2.343-3.333 2.625-6.625l.227-2.477L455 149l1.39 1.242 1.86 1.633 1.828 1.617C465.4 157.667 470.421 157.64 477 157c2.58-.767 4.611-1.726 7-3v-2l3-1c3.986-4.2 5.327-8.263 5.313-14-.08-1.668-.175-3.336-.313-5h-2l-.812-2.312c-1.154-2.611-2.174-3.762-4.188-5.688l-1-3 3-1c1.479-2.958 1.436-4.702 1-8-2.47-4.449-5.608-7.186-10.375-8.937-4.981-1.37-9.912-1.87-14.937-.376L461 103l-1.082-1.457c-3.07-2.47-6.522-1.983-10.293-1.918l-2.508.026c-6.565.15-13.045.747-19.555 1.599"/><path fill="#5D1E31" d="M416 105c1.502 3.003 1.093 5.79 1.063 9.125l-.028 3.883L417 121c3.471.75 3.471.75 7 1v5l-1-3-2.887.875-3.8 1.125-3.762 1.125c-3.052.752-5.44 1.065-8.551.875l.55 1.59c1.856 5.717 3.1 11.438 4.137 17.347l.398 2.26c.505 2.972.915 5.783.915 8.803l2.45-.437 3.238-.563 3.199-.562A47 47 0 0 1 427 156l-1-6-3.25 1c-3.75 1-3.75 1-7.75 1v-7l1.898-.297 2.477-.453 2.46-.422c2.342-.645 2.342-.645 3.454-2.906L426 139v5c-6.625 2-6.625 2-10 2v4l6-1v-3l5 1c1.158 3.473 1.069 6.36 1 10q-2.78.509-5.562 1l-3.13.563c-3.473.459-6.809.508-10.308.437-4.223-16.708-4.223-16.708-6-25l-5 5c1.875-4.875 1.875-4.875 3-6l-7-3v2h-2l-.875 2.75c-.89 2.572-1.84 4.863-3.125 7.25h-2l-2-10h-7l.805 2.684c2.775 9.735 4.258 19.245 5.195 29.316h6l-1-12 3 1-1 12h-8l-1-6h-2l-.312 1.875C378 163 378 163 375 165l3-12-7 1 .125 2.375C371 159 371 159 369 161c-2.375.438-2.375.438-5 0-4.129-4.243-5.156-7.699-5.25-13.5l-.078-2.906C359 142 359 142 360.348 140.137 362 139 362 139 364.688 139.312L367 140v2l8-1c-2.026-4.324-2.026-4.324-5-8-5.634-.79-10.46-1.087-15.187 2.25-3.428 5.201-3.318 10.676-2.813 16.75.81 3.732 1.838 7.363 3 11l-1.812.438c-1.75.45-3.475.99-5.188 1.562l.105-3.105q.043-2.042.082-4.083l.077-2.04c.065-4.487-.528-7.204-3.264-10.772-2.867-2.325-4.29-3.015-8-2.937-3.39 1.059-5.392 2.56-8 4.937v-4c4.556-2.667 7.734-3.397 13-3l3 1-1-2h4v-1l-5-1 2-1 2 1 .438-2.187c2.47-4.448 5.76-6.28 10.562-7.813 3.857-.219 7.625-.123 11.484.023 3.168-.02 4.99-.265 7.829-1.523 4.136-1.683 7.037-1.687 11.425-1.54 2.542.045 4.793-.38 7.262-.96h4c2.202-.616 4.39-1.288 6.563-2 6.118-2 6.118-2 9.437-2l-1-3.187c-.844-3.217-1.374-5.542-1-8.813z"/><path fill="#971824" d="M397 26c2.86.31 4.547.58 6.688 2.563 1.443 2.68 2.062 5.25 2.59 8.242 1.508 4.584 3.736 7.558 7.78 10.172l3.38 1.648c7.334 3.62 13.233 7.359 16.312 15.313.718 5.922.446 9.926-2.75 15.062-3.843 4.638-7.931 6.7-13.875 7.563-4.197-.24-7.025-1.614-10.25-4.278-3.646-4.444-5.248-10.018-7.17-15.368-3.953-10.757-8.004-16.207-18.283-21.16A153 153 0 0 0 375 43c1.836 14.44 5.216 27.456 16 38a66 66 0 0 0 4 2c-.424 2.966-.93 4.891-2.562 7.438-1.72 3.065-1.68 5.102-1.438 8.562 2.479-2.2 3.612-4.064 4.688-7.187.25-.716.502-1.431.761-2.168L397 88c2.468 1.152 4.048 2.048 6 4l-1-8c5.09.428 7.354 1.712 10.875 5.375l2.367 2.398C417 94 417 94 417 97c-3.243-.56-4.93-1.413-7-4v-2h-2l1 3c.128 2.674.044 5.321 0 8h-4c-1.414-1.496-1.414-1.496-2.625-3.437C400.676 95.76 400.676 95.76 398 94l-.812 2.688c-1.105 3.08-2.416 5.574-4.188 8.312-1.875-.312-1.875-.312-4-1-2.833-4.25-2.534-8.009-2-13 1.5-3.625 1.5-3.625 3-6l-2.75-2.125c-5.407-4.178-8.164-10.433-10.937-16.5l-.932-1.984c-2.186-4.725-3.516-8.522-3.479-13.72l.01-2.421.026-2.5.013-2.547q.02-3.102.049-6.203c9.531 1.028 19.795 7.522 26.258 14.54 4.81 6.793 7.997 14.812 10.492 22.71 1.333 4.043 1.333 4.043 4.25 6.75 4.944.638 6.872.859 10.875-2.187 2.84-3.76 4.235-6.046 3.938-10.813-.925-3.413-1.477-5.31-3.813-8-3.245-1.607-6.57-2.848-10-4l1-3-1.793-1.031c-7.1-4.355-11.148-8.93-13.52-16.969L399 32l-2 1-1 3-7-1 1-3 3-1a95 95 0 0 0 4-5"/><path fill="#771624" d="M319.188 120.625C324.404 125.03 327.626 130.65 330 137l1.703-.992c2.566-1.126 4.265-1.215 7.047-1.133l2.422.055L343 135v1l-2.012.367c-4.522.858-8.787 1.673-12.988 3.633l-1-5h-3l-.148 2.59-.227 3.347c-.07 1.103-.14 2.205-.21 3.34L323 147l-2 1 .14-2.852c.272-7.51.272-7.51-1.515-14.71-5.642-5.24-11.264-7.731-19-8-6.705.253-12.407 2.198-18.625 4.562q-1.995.519-4 1 1.436 7.685 2.88 15.369.491 2.61.978 5.22.705 3.768 1.415 7.536l.433 2.327c.693 3.663 1.458 7.276 2.394 10.884.834 3.396 1.074 6.19.9 9.664l10-1v-9c3.308.427 6.01 1.409 9 2.813 5.802 2.68 11.874 4.407 18 6.187v2c-2.674.891-5.237 1.477-8 2l1.898.402 2.477.536 2.46.527C325 184 325 184 327 185l-1 1c-5.961-.379-11.107-1.5-16.738-3.477-2.537-.587-3.85-.459-6.262.477l-2 2c-2.716.485-5.26.805-8 1l-2.645.2-2.668.113-2.488.113C283 186 283 186 281.425 184.273c-1.554-2.479-2.002-4.19-2.417-7.07l-.44-2.871-.443-3.082a420 420 0 0 0-5.55-29.23c-1.194-5.44-2.282-10.459-1.575-16.02 3.224-3.598 7.084-5.042 11.563-6.687l3.378-1.262c11.424-3.925 22.59-2.858 33.247 2.574"/><path fill="#F7A842" d="M396 24c4.455.51 6.939 1.697 10 5 .947 2.503 1.645 5.013 2.336 7.598 1.322 4.782 2.82 6.845 6.976 9.59 3.123 1.64 6.298 2.82 9.688 3.812v2h2l2 4c-2.138-.992-3.977-1.982-5.836-3.441-2.274-1.638-4.461-2.6-7.039-3.684C410.522 46.123 407.637 42.61 405 37c-.7-2.29-.7-2.29-1.187-4.437-.44-3.811-.44-3.811-3.813-5.563-2.057.014-2.057.014-4 1a125 125 0 0 0-3 4l-3 1-1 2 7 1 1-4h3l.48 1.723C403.342 43.19 407.26 48.293 416 53l-1 2 2.047.848c8.205 3.687 8.205 3.687 10.64 7.527 1.552 4.284 1.634 6.274.313 10.625-3.62 6.31-3.62 6.31-7 8-7.216.582-7.216.582-10.074-1.54-2.448-3.127-3.614-6.43-4.863-10.147C401.77 58.329 396.41 47.616 385 41v-1c5.152-.09 9.92.153 15 1l-2-5-1 2-9-1-1-4 1.46-1.207 1.915-1.605 1.898-1.583c1.95-1.687 1.95-1.687 3.727-4.605"/><path fill="#DFE0E2" d="M490 112h2c.504 5.294-.81 7.814-4 12h2c4.108 4.12 5.442 8.734 5.75 14.438-.313 7.954-3.923 11.894-9.445 17.187-5.58 4.934-10.667 4.698-17.828 4.676-4.56-.395-6.88-1.56-10.477-4.301l-1.562 3.375c-1.671 2.852-2.285 3.55-5.375 5.063-4.542.925-9.208.58-13.817.511-3.625.057-6.836.595-10.355 1.41-4.694 1.04-9.44 1.792-14.18 2.588-3.973.638-3.973.638-7.711 2.053-2.01-.064-4.02-.13-6.027-.258-2.072.05-2.072.05-3.243 1.703-2.716 2.441-5.98 2.274-9.48 2.555-4.275.351-8.025.748-11.96 2.54-7.013 3.114-13.69 1.726-20.673-.884L352 176c-.43.47-.859.941-1.3 1.426-2.976 2.756-6.81 3.623-10.829 3.52-.7-.045-1.4-.088-2.121-.133L334 181c-1.917 2.25-1.917 2.25-3 5-1.55 1.921-2.446 2.872-4.875 3.434-5.838.01-10.31-1.399-15.645-3.754-2.437-.933-2.437-.933-4.546.125L304 187c-6.761 2.368-12.159 1.857-19 0v-1l3.395-.332 4.418-.48 2.236-.213c4.144-.47 6.14-.96 8.951-3.975 2.27.074 2.27.074 4.813.688l2.69.628c1.938.53 3.85 1.152 5.747 1.809 3.127.995 5.489 1.237 8.75.875 3.333-2.142 3.838-5.367 5-9l2.633.105c9.94.238 9.94.238 18.242-4.792L353 170l2.813 1.938c4.609 2.982 7.744 3.5 13.187 3.062 1.5-.617 2.98-1.288 4.438-2 4.534-2.194 7.557-2.242 12.562-2 5.401-.231 5.401-.231 9.438-3.562.515-.805 1.03-1.61 1.562-2.438l1 1c5.011-.091 10.007-.573 15-1 1.136-.09 1.136-.09 2.294-.184 2.28-.189 4.555-.405 6.831-.629l2.15-.175c4.705-.504 7.319-1.745 10.725-5.012l2 2c5.509.373 9.797-.195 15-2 1.663-1.663 1.36-3.783 1.563-6.062l.253-2.786L454 148l1.61 1.242 2.14 1.633 2.11 1.617c6.486 4.57 12.709 4.105 20.39 3.07 4.81-2.732 8.288-7.638 10.75-12.562.228-1.87.41-3.747.563-5.625l.253-3.04L492 132h-2c-1.508-1.645-1.508-1.645-3.125-3.812l-1.633-2.145C484 124 484 124 484 121l3-3c.714-2.103.714-2.103 1-4h2z"/><path fill="#F5AE55" d="M375 43c4.264.597 7.354 2.093 11.063 4.25l3.097 1.766c4.57 3.193 7.055 6.938 9.277 11.984l1.286 2.883c.884 2.157 1.7 4.343 2.46 6.547 2.7 8.264 2.7 8.264 8.926 13.906 5.48 1.925 10.595.782 15.891-1.336-1.312 2-1.312 2-4 4-3.688.375-7.304.203-11 0h-3a196 196 0 0 1-7-3l2 9-2.375-2c-2.34-2.202-2.34-2.202-4.625-2l-.55 1.898-.762 2.477-.739 2.46C394 98 394 98 391 100c-1-1-1-1-1.312-3.687.385-4.089 1.946-6.014 4.312-9.313.77-2.226.77-2.226 1-4l-2.062-.5C384.233 78.055 380.35 68.714 377 60c-1.83-5.726-2.218-11.013-2-17"/><path fill="#252327" d="M467 90c8.642.987 15.422 3.794 23 8v2l2.313.75c3.057 1.422 3.982 2.378 5.687 5.25.356 2.666.356 2.666.328 5.691l-.015 3.366-.063 3.505-.016 3.424c-.065 7.054-.51 14-1.234 21.014v1h1q.08 4.406.125 8.813c.017.833.034 1.666.05 2.525l.02 2.432.032 2.237C498 162 498 162 496 165c-2.062.938-2.062.938-5 2l-2.082 1.012c-4.941 2.399-8.426 3.455-13.918 2.988l.473-1.715.59-2.222.597-2.215L477 163l-1-1-1 3v-3l-3.687.125c-3.532.013-6.113-.525-9.313-2.125 4.453-1.484 8.799-.912 13.457-.742 5.084-.37 8.17-1.95 11.844-5.45l2.012-2.37 2.05-2.38c3.945-4.961 3.206-10.974 2.637-17.058-1.06-2.511-2.196-3.914-4-6v-2h-2l3-6c.37-3.571.37-5.416-1.574-8.484l-2.113-2.266-2.075-2.297c-4.731-4.129-9.54-4.32-15.55-4.578l-2.245-.117A785 785 0 0 0 462 100v-1h6zm2 7v1l11 1c-4.216-2.108-6.398-2.177-11-2m15 4 2 3 2-1zm4 3c1.309 3.122 1.309 3.122 4 5-1.309-3.122-1.309-3.122-4-5m4 5 1 11c2.214-1.754 2.214-1.754 2.047-3.91l-.297-2.153-.266-2.16L494 110zm0 11 1 2Zm-1 2 1 2Zm2 3 1 2Zm1 2 2 4-1-4zm0 21v3Zm-3 4-4 5 4-2z"/><path fill="#F6F7F9" d="M476.875 109.898c2.286 1.462 3.898 2.649 5.125 5.102-5.625 3.875-5.625 3.875-9 5v-2h-8c.58 2.49.58 2.49 2 5 2.642 1.255 2.642 1.255 5.75 1.938 5.751 1.744 8.896 2.983 12.25 8.062.461 4.353-.565 7.925-2.187 11.938-2.477 2.817-4.12 3.378-7.813 4.062-5.22-.01-9.902-.523-14-4-1.312-2.687-1.312-2.687-2-5 4.75-3 4.75-3 7-3l1.25 2c1.654 2.35 1.654 2.35 4.875 2.313 2.769.002 2.769.002 3.875-1.313.04-1.666.043-3.334 0-5-3.364-2.017-6.052-2.248-9.937-2.375-3.935-.269-5.8-.47-9.25-2.5-2.347-2.751-2.77-4.81-3.25-8.375.593-5.084 2.693-7.41 6.437-10.75 5.298-3.768 11.033-3.901 16.875-1.102"/><path fill="#5F1929" d="m449.563 99.625 2.394-.042c4.421.036 6.696.566 10.043 3.417l3-1c6.827-.47 13.408.08 18.902 4.547 2.72 2.893 3.986 4.727 4.598 8.703C488 118 488 118 486 121h-2c1.755 3.182 1.755 3.182 4 6a177 177 0 0 1-1 7l-1-2-1.875-.437C482 131 482 131 480.746 129.593c-2.379-2.17-4.739-2.734-7.808-3.655-5.73-1.73-5.73-1.73-7.938-3.938v-4c5.75-1.125 5.75-1.125 8 0v2l8-6c-4.66-3.704-8.932-5.635-15-5-2.97 1.31-5.432 3.03-8 5l-3 2-1-10q-6.81.569-13.617 1.172-2.317.203-4.636.395c-2.217.185-4.433.382-6.65.581l-2.105.168c-1.672.156-3.335.411-4.992.684l-1 2 1-4 11-1c-3.692-.923-6.481-1.103-10.25-1.062l-3.266.027L417 105l1-2c3.05-.88 6.234-1.195 9.375-1.625l2.836-.393c6.452-.828 12.846-1.3 19.351-1.357"/><path fill="#252227" d="m280 112 1 3 2.387-.656c13.088-3.346 23.946-3.403 36.613 1.656l3 2-1 2c-.96-.68-.96-.68-1.937-1.375-11.169-5.926-26.25-4.734-38.141-1.613-5.629 1.904-10.576 3.968-13.922 8.988-.43 8.639 2.53 17.78 4.375 26.188q.69 3.184 1.38 6.37.455 2.103.917 4.205c.76 3.476 1.469 6.95 2.083 10.454l.37 2.05c.33 1.85.643 3.702.956 5.555 1.035 3.58 2.285 5.557 4.919 8.178 7.18 1.044 16.803-.525 23.066-4.219C308 184 308 184 310.48 184.68l2.707 1.195c5.022 1.97 9.434 3.246 14.813 2.125 3.027-1.816 3.027-1.816 5-4-.995 2.624-1.972 3.976-4.125 5.813-6.052 2.5-12.008-.02-17.797-2.29-2.535-.638-3.594-.328-6.078.477q-3.87 1.08-7.75 2.125l-2.055.59c-5.096 1.346-9.003 1.205-14.195.285l1.863.332 2.45.48 2.425.458c2.546.822 3.666 1.597 5.262 3.73v3a319 319 0 0 1-4.75-.812l-2.672-.458c-2.8-.793-4.451-1.757-6.578-3.73v-2h-2a91 91 0 0 1-4.937-6.187l-1.342-1.694c-7.174-9.783-7.215-22.052-7.112-33.704.016-2.177 0-4.352-.02-6.528-.026-16.864-.026-16.864 4.721-22.42 2.458-2.195 5.054-3.645 8.002-5.092 2.998-1.138 2.998-1.138 3.688-4.375m-15 20c.602 6.327 1.622 12.376 3.063 18.563l.564 2.478q.68 2.98 1.373 5.959h1c-.396-9.35-2.576-18.014-5-27zm6 27c.516 7.882 2.092 15.345 4 23h1c-.516-7.882-2.092-15.345-4-23zm5 23 1 5 1-2z"/><path fill="#F4F6F8" d="M454 106v6l-11 1 1 2c.21 1.73.368 3.468.5 5.207l.249 3.201.251 3.404.263 3.43c.25 3.252.493 6.505.737 9.758l.352 4.547q.328 4.226.648 8.453h-7l-.26-1.82q-.584-4.06-1.178-8.118l-.408-2.865-.4-2.724-.365-2.524c-.2-1.946-.2-1.946-1.389-2.949a275 275 0 0 1-1.062-8.562l-.276-2.444q-.335-2.996-.662-5.994l-11 1-1-7c3.393-1.697 7.196-1.678 10.938-2.062.855-.09 1.71-.18 2.59-.271 6.172-.614 12.268-.918 18.472-.667"/><path fill="#F4F5F7" d="M370 132c2.697 1.768 3.397 3.081 5 6v3l-8 1-1-2c-3.29.379-3.29.379-6 2-.558 6.3-.576 11.564 3 17 1.066 1.296 1.066 1.296 3.563 1.063L369 160l2-6 7-1c-.192 8.149-.192 8.149-3.375 11.5-4.356 2.49-7.649 2.837-12.625 2.5-4.02-1.34-6.151-2.806-8.312-6.375-3.002-6.448-3.93-13.724-2.157-20.723 3.386-8.667 10.01-9.356 18.469-7.902"/><path fill="#1A264A" d="M361 52c-.129 1.879-.129 1.879-1 4-2.59 1.09-2.59 1.09-5.937 1.938-5.232 1.466-9.85 3.175-14.625 5.753C337 65 337 65 334.5 66.09 320.684 72.525 309.616 85.514 303 99a627 627 0 0 1-2.937 5.25q-1.034 1.874-2.063 3.75l-4-1c.439-5.56 1.954-9.255 5.125-13.875l1.239-1.85A405 405 0 0 1 304 86l1.73-2.52c11.438-15.673 30.026-28.388 48.92-33.148 2.805-.396 3.992.183 6.35 1.668"/><path fill="#F6F7F9" d="M339.688 140.75c3.854 1.455 5.732 3.062 8.312 6.25 1.074 3.223 1.133 5.615 1.125 9l.008 3.188c-.174 3.682-.67 5.335-3.258 8-3.687 2.324-5.581 2.49-9.875 1.812-4.325-2.856-6.405-5.13-8-10-.862-4.791-1.247-9.138 1.543-13.305 3.353-3.23 5.44-4.626 10.144-4.945"/><path fill="#F5F6F8" d="m394 130 8 2a5116 5116 0 0 1-3.937 6.938l-1.131 1.998c-2.819 4.95-2.819 4.95-3.932 6.064l12 7c-2 5-2 5-4 6a100 100 0 0 1-6.625-3.937l-1.852-1.17A697 697 0 0 1 388 152l1 2a95 95 0 0 1 .063 5.125l-.028 2.758L389 164h-6q-1.223-6.03-2.437-12.062l-.698-3.436c-1.104-5.488-2.164-10.947-2.865-16.502l7-1c2.68 4.019 2.156 6.242 2 11h2l.313-1.625c.868-3 2.243-5.613 3.687-8.375h2z"/><path fill="#D3D5D7" d="m396 165 2 1c1.373.069 2.75.085 4.125.063L406 166l-1 5-5.957-.293c-2.134.08-2.134.08-3.32 1.742-2.71 2.44-5.978 2.27-9.473 2.551-4.275.351-8.025.748-11.96 2.54-7.013 3.114-13.69 1.726-20.673-.884L352 176l-1.3 1.426c-2.976 2.756-6.81 3.623-10.829 3.52-.7-.045-1.4-.088-2.121-.133L334 181c-1.917 2.25-1.917 2.25-3 5-1.55 1.921-2.446 2.872-4.875 3.434-5.838.01-10.31-1.399-15.645-3.754-2.437-.933-2.437-.933-4.546.125L304 187c-6.761 2.368-12.159 1.857-19 0v-1l3.395-.332 4.418-.48 2.236-.213c4.144-.47 6.14-.96 8.951-3.975 2.27.074 2.27.074 4.813.688l2.69.628c1.938.53 3.85 1.152 5.747 1.809 3.127.995 5.489 1.237 8.75.875 3.333-2.142 3.838-5.367 5-9l2.633.105c9.94.238 9.94.238 18.242-4.792L353 170l2.813 1.938c4.609 2.982 7.744 3.5 13.187 3.062 1.5-.617 2.98-1.288 4.438-2 4.534-2.194 7.557-2.242 12.562-2 3.744-.057 3.744-.057 7-1 1.99-2.425 1.99-2.425 3-5"/><path fill="#F2F4F6" d="m423 124 1 8h-11v8l12-1-1 5-9 1v7l11-2 1 6-17 2q-1.224-5.53-2.437-11.062l-.698-3.147c-1.15-5.252-2.206-10.454-2.865-15.791q3.904-1.006 7.813-2l2.236-.578c3.056-.775 5.785-1.422 8.951-1.422"/><path fill="#5F1220" d="M364.688 139.313 367 140v2l11-1v6h3l2 17h6l-1-12 3 1-1 12h-8l-1-6h-2l-.312 1.875C378 163 378 163 375 165l3-12-7 1 .125 2.375C371 159 371 159 369 161c-2.375.438-2.375.438-5 0-4.129-4.243-5.156-7.699-5.25-13.5l-.078-2.906C359 142 359 142 360.348 140.137 362 139 362 139 364.688 139.312"/><path fill="#561B30" d="M319.188 120.625C324.404 125.03 327.626 130.65 330 137l1.703-.992c2.566-1.126 4.265-1.215 7.047-1.133l2.422.055L343 135v1l-2.012.367c-4.522.858-8.787 1.673-12.988 3.633l-1-5h-3l-.148 2.59-.227 3.347c-.07 1.103-.14 2.205-.21 3.34L323 147l-2 1 .14-2.852c.272-7.51.272-7.51-1.515-14.71-6.836-6.348-13.328-8.002-22.547-7.81-3.241.392-6.003 1.302-9.078 2.372-3.056-.34-3.783-.783-6-3q-1.97.965-3.937 1.938l-2.215 1.09c-1.81.836-1.81.836-2.848 1.972.066 1.483.205 2.963.375 4.438.1.893.199 1.786.3 2.707L274 137q.285 2.813.563 5.625l.253 2.54L275 147c-3.919-5.878-4.838-14.054-4-21 3.472-3.376 7.052-5.03 11.563-6.687l3.378-1.262c11.424-3.925 22.59-2.858 33.247 2.574"/><path fill="#600F19" d="M323 134c1.922.371 1.922.371 4 1 1.25 2.063 1.25 2.063 2 4l3.063-1.5c4.784-2.04 8.916-2.188 13.875-.5l2.062 1 1-3 1 2-2 3h-3l2 3-2.062-1c-3.506-1.193-6.255-1.273-9.938-1l-3 2h-3c-.835 6.321-1.451 12.648-2 19-5.192.212-9.127-.409-14-2l1.277-1.61 1.66-2.14 1.653-2.11c1.394-2.116 1.825-3.715 2.41-6.14l2-1c.47-3.046.47-3.046.625-6.562l.227-3.63z"/><path fill="#541B2F" d="M439 100c3.083-.087 6.166-.14 9.25-.187l2.645-.077c4.78-.054 7.422-.064 11.105 3.264l3-1c6.196-.427 11.311.427 17 3 3.366 3.366 4.212 7.4 5 12l-2-2-2 1-1.125-2.312c-2.357-3.38-3.991-4.322-7.875-5.688-5.403-.541-10.672.093-16 1v3l-3-1v-7l-2.875.5c-7.428 1.05-14.734.595-22.125-.5 2.967-1.648 5.656-2.443 9-3zm42 16 2 1Z"/><path fill="#561B2C" d="M297 169c3.308.427 6.01 1.409 9 2.813 5.802 2.68 11.874 4.407 18 6.187v2c-2.674.891-5.237 1.477-8 2l1.898.402 2.477.536 2.46.527C325 184 325 184 327 185l-1 1c-5.961-.379-11.107-1.5-16.738-3.477-2.537-.587-3.85-.459-6.262.477l-2 2c-2.688.27-5.291.087-8 0l4-2v-3h-10c3.991-1.996 5.7-2.195 10-2z"/><path fill="#D0D5DC" d="M462 99c3.338.28 6.634.413 9.98.479 5.847.225 9.811 1.532 14.172 5.459l1.786 2.062 1.84 2.063L491 111l-1 3h-2a73 73 0 0 1-2.562-3.812c-3.421-4.703-6.777-6.23-12.438-7.188-3.556-.326-6.854-.34-10.312.688L461 104l-1.082-1.457c-3.07-2.47-6.522-1.983-10.293-1.918l-2.506.024c-6.592.146-13.087.78-19.619 1.663l-2.732.356-2.55.383-2.251.333c-2.373.743-3.405 1.705-4.967 3.616-.778 2.033-.778 2.033-1.187 4.188L413 115c-2.342-3.513-2.496-4.865-2-9 1.995-3.657 3.333-4.785 7.313-6.07 5.978-1.369 12.083-1.65 18.187-2.055l3.59-.262C457.007 96.425 457.007 96.425 462 99"/><path fill="#4D1423" d="m301.5 134.75 2.344-.078c2.696.41 3.546 1.16 5.156 3.328.424 3.983.18 6.645-2 10-2.566 1.922-2.566 1.922-5.562 3.75l-3.004 1.86C296 155 296 155 295 155c-.962-6.374-1.107-12.56-1-19 2.76-.92 4.634-1.193 7.5-1.25"/><path fill="#5D1626" d="m370 127 3 2-2.414-.07c-8.01-.245-8.01-.245-15.586 2.07l-1 2 4-1-3.809 4.297c-3.144 4.495-2.627 10.462-2.191 15.703.81 3.732 1.838 7.363 3 11l-1.812.438c-1.75.45-3.475.99-5.188 1.562l.105-3.105q.043-2.042.082-4.083l.077-2.04c.065-4.487-.528-7.204-3.264-10.772-2.867-2.325-4.29-3.015-8-2.937-3.39 1.059-5.392 2.56-8 4.937v-4c4.556-2.667 7.734-3.397 13-3l3 1-1-2h4v-1l-5-1 2-1 2 1 .438-2.187c4.537-8.167 14.073-9.024 22.562-7.813"/><path fill="#F2D8C1" d="m410 50 6 3-1 2 2.047.848c8.205 3.687 8.205 3.687 10.64 7.527 1.552 4.284 1.634 6.274.313 10.625-3.62 6.31-3.62 6.31-7 8-7.213.582-7.213.582-10.066-1.527-2.525-3.23-3.685-6.496-4.997-10.348a946 946 0 0 0-1.472-4.18l-.715-2.022c-.823-2.209-.823-2.209-2.496-5.306L400 56l1-2c3.902 6.82 7.503 13.261 9.297 20.977.808 2.324 1.858 3.431 3.703 5.023 3.39-1.191 5.71-2.203 8-5 .937-2.995 1.171-5.87 1-9-2.515-4.715-6.4-6.612-11-9v-4l-2-1z"/><path fill="#D6DADE" d="M414 112c2 3 2 3 2 7q-3.872 1.26-7.75 2.5l-2.21.723-2.15.683-1.967.635C400 124 400 124 396 124q-2.19.224-4.375.5c-2.655.32-5.004.485-7.687.375-2.846.121-4.1.558-6.625 1.688-5.113 2.124-9.964 1.253-15.313.437v-1l3-.312c2.862-.399 4.803-1.012 7.563-2.126 6.854-2.73 14.672-3.607 22.011-3.519 3.378-.042 5.96-.562 9.176-1.543 2.97-.896 5.134-1.5 8.25-1.5z"/><path fill="#2E2F42" d="m280 112 1 3 2.387-.656c13.088-3.346 23.946-3.403 36.613 1.656l3 2-1 2c-.96-.68-.96-.68-1.937-1.375-11.169-5.926-26.25-4.734-38.141-1.613-5.629 1.904-10.576 3.968-13.922 8.988-.479 8.866 2.658 18.31 4.563 26.938q.742 3.382 1.477 6.767.454 2.091.918 4.18c.606 2.778 1.042 5.261 1.042 8.115h-2a8992 8992 0 0 1-3.363-15.369q-.57-2.61-1.144-5.22-.827-3.766-1.645-7.536l-.515-2.327c-2.894-13.381-2.894-13.381-.77-17.798 3.146-3.55 6.448-5.836 10.75-7.812 2.046-.889 2.046-.889 2.687-3.938"/><path fill="#37203D" d="M445 101v1l-11 1c3.083.77 5.052 1.12 8.11 1.098l2.285-.01 2.355-.025 2.402-.014q2.925-.02 5.848-.049l.375 3.438L456 111l2 1v-3c6.615-2.252 12.717-3.277 19.375-.687 4.073 2.618 4.073 2.618 5.625 4.687v3c-3 2.188-3 2.188-6 4l-2-1 6-5c-4.66-3.704-8.932-5.635-15-5-2.97 1.31-5.432 3.03-8 5l-3 2-1-10q-6.81.569-13.617 1.172-2.317.203-4.636.395c-2.217.185-4.433.382-6.65.581l-2.105.168c-1.672.156-3.335.411-4.992.684l-1 2 1-4 11-1c-3.692-.923-6.481-1.103-10.25-1.062l-3.266.027L417 105l1-2c8.636-2.815 18.042-2.202 27-2"/><path fill="#5F1421" d="M403 133c4.21 6.314 4.28 14.589 4 22l-2 1v-2l-2.562-.75c-3.822-1.39-6.957-3.161-10.438-5.25 2.787-5.443 5.412-9.922 10-14z"/><path fill="#3B343F" d="m434 164 2 1c-5.609 3.39-11.4 4.144-17.812 5.125l-3.159.512c-4.717.752-9.408 1.42-14.166 1.855-3.871.11-3.871.11-5.863 2.508-2.175.39-4.367.689-6.562.938-4.233.537-8.034 1.11-12 2.687-5.852 2.167-13.932 2.968-19.708.344L355 178c-2.69.269-4.238 1.145-6.562 2.563-4.827 2.018-9.276 1.685-14.438 1.437l-1 2 1-4 3.5.188c5.365.009 10.104-1.59 14.563-4.563 2.803-.904 4.348.407 6.882 1.625 6.069 2.215 11.467 1.06 17.155-1.533 3.925-1.481 8.14-1.556 12.29-1.889 4-.394 5.98-.785 8.61-3.828 1.858-.031 3.722-.06 5.574.09 2.854-.106 5.426-.815 8.176-1.544 3.996-.97 8.06-1.512 12.125-2.108q2.528-.373 5.055-.754l2.226-.327c1.93-.288 1.93-.288 3.844-1.357"/><path fill="#F6EAE9" d="M396 24c4.455.51 6.939 1.697 10 5 .947 2.503 1.645 5.013 2.336 7.598 1.322 4.782 2.82 6.845 6.976 9.59 3.123 1.64 6.298 2.82 9.688 3.812v2h2l2 4c-2.138-.992-3.977-1.982-5.836-3.441-2.274-1.638-4.461-2.6-7.039-3.684C410.522 46.123 407.637 42.61 405 37c-.7-2.29-.7-2.29-1.187-4.437-.44-3.811-.44-3.811-3.813-5.563-2.057.014-2.057.014-4 1a125 125 0 0 0-3 4l-3 1-1 2 7 1 1-4h3l.48 1.688c1.748 5.715 4.132 10.398 7.52 15.312-3.66-1.436-4.907-3.04-6.687-6.5l-1.262-2.406Q399.024 38.048 398 36l-1 2-9-1-1-4 1.46-1.207 1.915-1.605 1.898-1.583c1.95-1.687 1.95-1.687 3.727-4.605"/><path fill="#EEEFF0" d="M319 117c1.793 1.605 1.793 1.605 3 3-1.625.688-1.625.688-4 1a134 134 0 0 1-6-3c-14.722-3.75-28.295.477-41.05 7.828L269 127v-4c4.74-4.674 11.705-6.48 18-8l2.324-.562c9.55-1.562 20.745-1.405 29.676 2.562"/><path fill="#781526" d="M285 122c-.125 1.875-.125 1.875-1 4a92 92 0 0 1-6 2l.324 3.832.363 4.98.221 2.526.166 2.432.175 2.237c-.32 2.563-1.298 3.381-3.249 4.993-2.07-2.07-2.04-5.913-2.562-8.75-.14-.717-.278-1.433-.42-2.172-1.834-9.83-1.834-9.83.045-12.703 3.855-2.736 7.313-4.916 11.937-3.375"/><path fill="#282544" d="M403 128c3.197 5.937 4.512 12.108 5.625 18.688l.406 2.298c.526 3.042.969 5.922.969 9.014l2.45-.437 3.238-.563 3.199-.562A47 47 0 0 1 427 156l-1-6-3.25 1c-3.75 1-3.75 1-7.75 1v-7l1.898-.297 2.477-.453 2.46-.422c2.342-.645 2.342-.645 3.454-2.906L426 139v5c-6.625 2-6.625 2-10 2v4l6-1v-3l5 1c1.158 3.473 1.069 6.36 1 10q-2.78.509-5.562 1l-3.13.563c-3.473.459-6.809.508-10.308.437-4.223-16.708-4.223-16.708-6-25l-5 5c1.074-2.915 1.778-4.778 4-7 .643-2.069.643-2.069 1-4"/><path fill="#EFD5C4" d="M381 57c1.76 2.179 3.1 4.209 4.316 6.742 2.12 4.103 4.78 7.72 7.543 11.403 2.596 3.6 3.755 6.433 4.141 10.855h2l2-2c1.563 2.813 1.563 2.813 3 6l-1 3-1.875-2c-1.881-2.228-1.881-2.228-4.125-2l-.55 1.898-.762 2.477-.739 2.46C394 98 394 98 391 100c-1-1-1-1-1.312-3.687.385-4.089 1.946-6.014 4.312-9.313.77-2.226.77-2.226 1-4l-2-1v-3c-1.373-2.032-1.373-2.032-3.187-4.125C381 63.895 381 63.895 381 57"/><path fill="#DEDFDE" d="m434 159 3 2c3.13.373 6.236.505 9.383.656L449 162l1 2c-3.297 1.099-5.601 1.032-9.062.938-4.889-.033-9.226.32-13.973 1.417-4.172.907-8.377 1.58-12.59 2.27l-2.483.41q-2.946.484-5.892.965v-4l2.14-.212c3.205-.328 6.407-.683 9.61-1.038l3.367-.332 3.242-.371 2.984-.318c3.197-.877 4.534-2.236 6.657-4.729"/><path fill="#F3C28E" d="m375 43 5 1-3 1 .402 2.379c.93 5.533 1.84 11.062 2.598 16.621l3-1 1.102 1.906C387.418 70.552 390.948 75.856 395 81l-4 1c-9.086-8.924-15.502-20.392-16.11-33.328-.013-1.891.041-3.782.11-5.672"/><path fill="#151F42" d="M305 85c0 3.106-.54 4.353-2 7h2l2-2c-.618 3.088-1.64 5.257-3.375 7.875A88 88 0 0 0 298 108l-4-1c.426-5.925 2.16-9.524 5.5-14.375l1.262-1.902C303.74 86.26 303.74 86.26 305 85"/><path fill="#3E2A44" d="M278 132h1l.519 2.902q.964 5.38 1.935 10.758l.832 4.637q.6 3.353 1.206 6.703l.367 2.062c.626 3.445 1.348 6.83 2.227 10.22.84 3.42 1.089 6.219.914 9.718-1.685-3.056-2.555-5.91-3.29-9.316l-.663-3.065-.672-3.181-.695-3.194C280 152.411 280 152.411 280 149l-2 1 .219 1.871c.63 5.75.874 11.345.781 17.129h-1q-.758-3.842-1.5-7.687l-.434-2.186c-.722-3.765-1.248-7.272-1.066-11.127h2c1.502-3.003 1.093-5.79 1.063-9.125l-.028-3.883z"/><path fill="#5D2032" d="m316 123 1.75.938c2.14 1.144 2.14 1.144 4.223 1.351 2.86 1.003 3.366 2.49 4.714 5.148l1.262 2.434L329 135l1 2 1.703-.992c2.566-1.126 4.265-1.215 7.047-1.133l2.422.055L343 135v1l-2.012.367c-4.522.858-8.787 1.673-12.988 3.633l-1-5h-3l-.148 2.59-.227 3.347c-.07 1.103-.14 2.205-.21 3.34L323 147l-2 1 .14-2.816c.217-7.4.25-12.148-4.14-18.184v-2z"/><path fill="#CBCCCC" d="m352 170 4 3c-4.842 4.68-9.057 7.991-16.148 8.004l-2.164-.066L334 181l-2 3-3-1 2-7 2.633.105c8.66.39 8.66.39 16.367-3.105z"/><path fill="#EED9D0" d="M372 35c8.357.796 13.572 4.833 20 10-3.956 0-6.003-1.5-9.437-3.437-5.039-2.916-5.039-2.916-10.563-4.563.154 12.443.873 23.309 8 34l-1 3c-6.928-12.243-10.177-22.732-9-37z"/><path fill="#D8DADB" d="m454 148 1.61 1.242 2.14 1.633 2.11 1.617c4.727 3.33 8.461 3.94 14.14 4.508v1c-7.515 2.522-7.515 2.522-11.156 1.242-1.906-1.117-1.906-1.117-4.844-3.242l-1.75 3.438c-1.965 3.406-1.965 3.406-4.187 4.625-2.679-.082-4.656-.927-7.063-2.063v-1l3.438-.937c3.35-.692 3.35-.692 4.562-2.063.233-1.682.413-3.371.563-5.062l.253-2.786z"/><path fill="#7B1321" d="M381 127v2h-2v2h-3v6l-.895-1.984c-2.948-2.823-5.163-2.428-9.123-2.368l-2.67.102-2.705.055q-3.304.071-6.607.195c1-3 1-3 3.313-4.187 4.383-.966 8.411-.916 12.882-.786 3.746-.036 7.02-1.027 10.805-1.027"/><path fill="#152045" d="M343 57c-4.75 3-4.75 3-7 3v3l2 1-2 1.188c-1.664 1.005-3.316 2.036-4.902 3.16-5.358 3.692-5.358 3.692-9.598 3.465L319 71c3.363-4.968 7.477-7.448 12.563-10.375l2.326-1.402 4.273-2.498C340 56 340 56 343 57"/><path fill="#ECEDED" d="M461 100c2.709-.081 5.415-.14 8.125-.187l2.305-.077c6.05-.078 10.098 1.039 14.722 5.201l1.786 2.063 1.84 2.063L491 111l-1 3h-2a73 73 0 0 1-2.562-3.812c-4.853-6.63-11.28-7.039-19-8.376A577 577 0 0 0 461 101z"/><path fill="#40213B" d="M416 105c1.502 3.003 1.093 5.79 1.063 9.125l-.028 3.883L417 121c3.471.75 3.471.75 7 1v5l-1-3-2.887.875-3.8 1.125-3.762 1.125c-3.052.752-5.44 1.065-8.551.875 2.565-2.565 4.477-2.54 8-3v-3h-5c3.188-2.125 5.265-2.502 9-3l-1-3.187c-.844-3.217-1.374-5.542-1-8.813z"/><path fill="#2F304F" d="m319 150 1 2-6 7c4.326 1.583 8.429 2.451 13 3v-11h1l2 13-2 1-.437 2.375c-.617 2.876-1.34 3.789-3.563 5.625.875-7.75.875-7.75 2-10l-3.437.125c-4.707.017-9.026-.949-13.563-2.125v-2l2.188-1.25c3.474-2.162 5.309-4.531 7.812-7.75"/><path fill="#D6B87F" d="M364 219c2.169.506 4 1 6 2v5h-3v-5h-2c.537 3.377 1.11 6.697 2 10h-3v-2h-2v-2l-1.937.563L358 228c-1-1-1-1-1.062-4.062L357 221c1.813-.625 1.813-.625 4-1l3 2z"/><path fill="#35253C" d="M394 167v3c-2.277 2.277-7.623 1.457-10.703 1.621-3.16.363-5.425 1.062-8.297 2.379-5.146 2.014-9.787 3.184-15.152 1.207-3.698-1.745-5.522-2.718-7.848-6.207 2.438.375 2.438.375 5 1l1 2c2.948.983 4.927 1.134 8 1.125l2.625.008c2.525-.037 2.525-.037 5.375-1.133l2-3a62 62 0 0 1 7.438-.062c5.554.352 5.554.352 10.562-1.938"/><path fill="#901522" d="m423.75 103.75 2.664.078c3.244.216 6.383.615 9.586 1.172-3.522 2.348-5.508 2.377-9.687 2.625l-3.575.227L420 108l1 8-1-3h-2l-1 4c-1.185-3.554-1.266-6.27-1-10 2.24-3.13 4.012-3.366 7.75-3.25"/><path fill="#751220" d="m407.688 121.938 2.449.027L412 122v3l-1.715.516-2.223.734-2.214.703c-2.054.898-2.054.898-2.602 3.156L403 132l-5-1-1-5h2l1-3c2.882-.96 4.699-1.106 7.688-1.062"/><path fill="#121732" d="M478 100c3.23-.37 4.707-.183 7.5 1.563 4.583 4.468 8.361 8.768 8.5 15.437l-1.25 3.375c-1.104 3.425-1.104 3.425.227 5.531q1.41 1.987 2.84 3.961c1.987 3.582 1.597 7.157 1.183 11.133h-1l-.297-1.758c-1.03-5.38-2.48-8.838-5.703-13.242v-2h-2l3-6c.37-3.571.37-5.416-1.574-8.484l-2.113-2.266-2.075-2.297c-2.334-2.037-4.314-2.99-7.238-3.953z"/><path fill="#2C1A35" d="M337 149c2.438.375 2.438.375 5 1 1.114 2.229 1.165 3.53 1.188 6l.042 2.125C343 160 343 160 341 162c-2.062-.25-2.062-.25-4-1-1.123-2.245-1.134-3.515-1.125-6l-.008-2.125C336 151 336 151 337 149"/><path fill="#F5F6F7" d="m421.133 99.902 2.441.01 2.551.025 2.574.014q3.15.02 6.301.049v1l-3.613.55-4.7.763-2.38.357-2.295.38-2.11.334c-2.322.752-3.36 1.748-4.902 3.616-.778 2.033-.778 2.033-1.187 4.188L413 115c-2.342-3.513-2.496-4.865-2-9 2.99-4.486 4.804-6.135 10.133-6.098"/><path fill="#F6E0CC" d="m410 50 6 3-1 2 7 3-1 2 1.938 1.5C425.65 64.788 426.2 67.84 426 72c-1.296 3.889-2.014 5.495-5.687 7.375L418 80l1.938-1.937c2.67-3.964 3.409-7.303 3.062-12.063-2.515-4.715-6.4-6.612-11-9v-4l-2-1z"/><path fill="#182552" d="M343 213c4.875.875 4.875.875 6 2 .288 2.735.344 4.412-1.062 6.813-2.93 1.795-5.585 1.377-8.938 1.187.48-4.22 1.166-6.797 4-10"/><path fill="#505464" d="m440 186 4 1 1 5 4-1 1 2-2 1.375-2 1.625v2c-4.419-1.35-6.343-3.261-9-7z"/><path fill="#901521" d="M465 104c6.935-.377 13.052-.497 18.574 4.395C485 109.938 485 109.938 487 113c-.187 2.375-.187 2.375-1 4l-1-2-2 1-1.125-2.312c-2.349-3.367-4.031-4.264-7.875-5.688-2.993-.504-5.972-.805-9-1zm16 12 2 1Z"/><path fill="#DCDCDB" d="M490 112h2c.504 5.294-.81 7.814-4 12h2c1.625 2.5 1.625 2.5 3 5l-3 3a399 399 0 0 1-3-3.812l-1.687-2.145C484 124 484 124 484 121l3-3c.714-2.103.714-2.103 1-4h2z"/><path fill="#0A113B" d="M327 201c2.5 1.125 2.5 1.125 5 3 .313 3.188.313 3.188 0 6h-6l2 4h-3l-1-4h-2c1.25-3.46 2.675-6.147 5-9"/><path fill="#3E2E48" d="M380 147h1l2 17h6l-1-12 3 1-1 12h-8l-1-6h-2l-.312 1.875C378 163 378 163 375 165l1-2.562c1.061-3.648 1.151-6.66 1-10.438h2z"/><path fill="#7B121D" d="m349 135 1 2-2 3h-3l2 3-2.062-1c-5.353-1.822-9.877-1.454-14.938 1 .188-2.375.188-2.375 1-5 3.848-2.377 7.573-2.316 12-2 2.938 1 2.938 1 5 2z"/><path fill="#322642" d="M473 118v2l2 1-2 2 1.68.734 2.195 1.016 2.18.984c2.282 1.485 2.949 2.77 3.945 5.266l-2.937-1.812c-3.58-2.068-7.189-3.32-11.145-4.477C467 124 467 124 465 122v-4c2.862-1.43 4.934-.6 8 0"/><path fill="#D3D4D5" d="m396 165 2 1c1.373.069 2.75.085 4.125.063L406 166l-1 5-3.812-.187c-3.28-.134-3.28-.134-5.813 1.75L394 174c-3.647-.223-5.384-.384-8-3l3.313-.187c3.83-.426 3.83-.426 5.625-3.375.35-.805.7-1.61 1.062-2.438"/><path fill="#C5B996" d="m389 219-2 2c-.023 2.45-.023 2.45.375 5.125l.336 2.758L388 231l-1.75-1c-2.449-1.27-2.449-1.27-6.25-1v-7l5 1c-1.255-2.51-2.5-2.871-5-4 5.625-1.125 5.625-1.125 9 0"/><path fill="#1D2956" d="M430 199c3.367 1.393 4.986 2.979 7 6l-1 2c-3-2-3-2-4-3v4h-4l1.5 1.375C431 211 431 211 431 213c-3.335-1.38-5.186-2.85-7-6l1-3 5 2-.562-2.937L429 200z"/><path fill="#771221" d="M420 108c2.43 3.644 2.162 5.712 2 10h6c-3.08 3.672-5.248 4.568-10 5l-2-3c.75-3.625.75-3.625 2-7l2-1z"/><path fill="#EBEDEF" d="M369 123v3l-2.266.367-2.984.508-2.953.492c-2.58.584-4.463 1.446-6.797 2.633-2.25-.375-2.25-.375-4-1 5.376-6.203 11.296-6.308 19-6"/><path fill="#E8EAEB" d="M278 176h2l.813 3.313c1.176 4.123 1.176 4.123 4.187 6.687 2.654.83 5.273 1.419 8 2-2 2-2 2-5.812 2.5-3.65-.106-4.173-.488-7.188-3-2.687-3.756-2.386-7.018-2-11.5"/><path fill="#121F4B" d="M408 214h2c1.316 3.62 2 6.096 2 10h-2c-1.625-2-1.625-2-3-4v7c-3.81-2.77-4.068-6.629-5-11 4 0 4 0 6 1z"/><path fill="#F2A235" d="m410 95 6 4c-4.177 5.61-4.177 5.61-7.5 7.188-3.69-.277-4.95-2.639-7.5-5.188-2.76.05-2.76.05-5 1 1.75-4.875 1.75-4.875 4-6 .315.505.63 1.01.953 1.531l1.297 1.969 1.266 1.969L405 103h4z"/><path fill="#C0B798" d="M370 220q3.5-.061 7 0c1.663 1.663 1.36 3.783 1.563 6.063l.253 2.785L379 231h-3v-10h-2v10l-5 1v-5l2 1 1-7z"/><path fill="#BDB595" d="m400 215 3 1q.546 2.371 1.063 4.75l.597 2.672c.338 2.565.152 4.149-.66 6.578h-7c3-2 3-2 6-2v-2l-4 1v-3h3v-2l-4 1v-4h3v-2l-2-1z"/><path fill="#CACDD1" d="M276 158c2.184 3.574 2.418 6.8 2.688 10.938l.261 3.652c.045 3.019-.214 5.497-.949 8.41h-1q-.799-3.809-1.562-7.625l-.46-2.16c-.86-4.359-1.106-7.825.022-12.215z"/><path fill="#2D2140" d="M385 130c-2.906 1.257-4.796 2-8 2l.656 2.266.844 2.984.844 2.953C380 143 380 143 380 147h-2l-1-5h-5l3-1-1.437-2.812C372 135 372 135 371 132c3 1 3 1 4 3l.125-1.875c.875-2.125.875-2.125 3.75-3.437C382 129 382 129 385 130"/><path fill="#ECECEB" d="m434 159 3 2c3.13.373 6.236.505 9.383.656L449 162l1 2c-3.619 1.206-6.925 1.108-10.687 1.063l-2.127-.014q-2.594-.02-5.186-.049c0-3 0-3 2-6"/><path fill="#F3E3D7" d="M408 91h2a349 349 0 0 1 4 5l3 2h-4l-2-2-1 7-5 1-6-7-3 3 2-6c3.372 1.124 3.72 1.704 5.563 4.563 1.187 1.906 1.187 1.906 2.437 3.437h2z"/><path fill="#132250" d="m363 218 1 4-6-1v6h4l-1 3c-4.875-.875-4.875-.875-6-2-.464-7.194-.464-7.194 1.188-10.062 2.55-1.32 4.13-.736 6.812.062"/><path fill="#452F48" d="M429 115h5l.621 3.684.817 4.754.408 2.431c.357 3.886.357 3.886 2.154 7.131.072 1.52.084 3.042.063 4.563l-.028 2.503L438 142l-1-4h-2c-2.296-14.597-2.296-14.597-2-22z"/><path fill="#1E2C57" d="M387 219h2v4h2l1-4h2c-.613 2.962-1.254 4.38-3 7l4 2-2 1-2-1-1 3h-2a824 824 0 0 1-1.062-5.437l-.598-3.06L386 220z"/><path fill="#E3E3E3" d="M332 183c-1.152 2.468-2.048 4.048-4 6-4.19.623-7.877.657-11.562-1.5L315 186l2-2c2.32.106 4.52.514 6.809.906 3.35.144 4.672-1.906 8.191-1.906"/><path fill="#CDCDCD" d="m331 176 12 1-3 2 2 2-6.055-.293L334 181l-2 3-3-1z"/><path fill="#E0DFDF" d="M391 173c-2.915 1.64-5.237 2.298-8.562 2.563-2.759.227-4.779.55-7.438 1.437l-3-3c6.033-4.482 12.036-2.436 19-1"/><path fill="#92111A" d="M388 45c6.435 1.755 10.617 6.753 14 12.25 1 2.75 1 2.75 0 5.75l-5-9h-3c-2.546-2.778-4.47-5.559-6-9"/><path fill="#48374F" d="M349 152h3l3 11-4 1-3 1z"/><path fill="#342339" d="M322 125c3.975 3.407 5.868 7.328 8 12l1.703-.992c2.566-1.126 4.265-1.215 7.047-1.133l2.422.055L343 135v1l-2.012.367c-4.522.858-8.787 1.673-12.988 3.633l-1-6h-2c-3-6.75-3-6.75-3-9"/><path fill="#E4E6E6" d="M320.852 118.61 322 120c-1.625.688-1.625.688-4 1l-2.687-1.406c-3.65-1.756-6.68-2.29-10.688-2.781-1.245-.16-2.49-.318-3.773-.481L298 116v-1c7.389-1.355 16.822-1.631 22.852 3.61"/><path fill="#F8A435" d="M377 45h3c.93 3.72 1.027 7.171.969 10.996.042 2.729.497 5.333 1.031 8.004h-2c-2.303-6.567-3.337-12.037-3-19"/><path fill="#DDC07E" d="M440 183h2v2l2.813.938L451 188l3-3-3 9c-3-1-3-1-4-2h-2l-.812-2.437L443 187l-3-1z"/><path fill="#DCDEE0" d="M414 112c2 3 2 3 2 7-4.76 1.974-7.965 2.007-13 1l1-2c2.649-.594 5.292-.742 8-1z"/><path fill="#94111D" d="M406 72c6 7.714 6 7.714 6 12l3 1c-4.394-.502-6.872-1.872-10-5-.812-2.75-.812-2.75-1-5h2z"/><path fill="#1D2A57" d="M398.563 216.938 401 217v2h-3v4l4-1v2h-3v3l4-1v2l-6 1a824 824 0 0 1-1.062-5.437l-.598-3.06L395 218c1-1 1-1 3.563-1.062"/><path fill="#D6D8DA" d="M351.188 130.375 353 131l-1.875.188c-2.403.64-2.403.64-3.375 3.375L347 137q-2.44-.676-4.875-1.375l-2.742-.773C337 134 337 134 335 132l2.3.07 3.012.055 2.989.07c3.328-.24 4.637-2.377 7.887-1.82"/><path fill="#1E2A56" d="M415 210h5v2h-4l-1 2h3l-1 4 4-2-2-1 5-1c-.573 2.867-.861 3.861-3 6-2.5-.125-2.5-.125-5-1-1.375-1.75-1.375-1.75-2-4 .375-2.75.375-2.75 1-5"/><path fill="#6D1521" d="M475 135c1.375 2.625 1.375 2.625 2 5-3.028 1.514-4.81.976-8 0-1.875-3.062-1.875-3.062-3-6 3.845-1.282 5.372-.698 9 1"/><path fill="#2D1532" d="m364.125 126.688 3.133.011C370 127 370 127 373 129l-2.414-.07c-8.01-.245-8.01-.245-15.586 2.07l-1 2 4-1-5 6c-.97-3.02-1.328-5.06 0-8 3.775-2.783 6.473-3.388 11.125-3.312"/><path fill="#961722" d="m285 122-1 3c-3.562 1.188-3.562 1.188-7 2l-1-2v5l-2-1-2 3c-.36-4.448-.36-4.448 1.063-6.625 3.855-2.736 7.313-4.916 11.937-3.375"/><path fill="#DEE1E4" d="M461.438 98.875C464 101 464 101 465 103c-1.687.75-1.687.75-4 1l-2.062-1.875c-4.33-3.133-8.711-2.942-13.938-3.125v-1c6.005-1.501 10.971-2.107 16.438.875"/><path fill="#FDF2E2" d="M381 57c1.77 2.191 3.114 4.236 4.344 6.781 1.696 3.297 3.633 6.122 5.844 9.094l2.167 2.93L395 78l-1 2c-6.038-6.235-13-13.962-13-23"/><path fill="#DFBF7E" d="M431 203c2 0 2 0 3.625 1.5L436 206v-2h2v5l-6 1-1 3-4-6 5 1z"/><path fill="#383D57" d="m435 195 5 1 1 5c-2.375.625-2.375.625-5 1l-2-2c.375-2.625.375-2.625 1-5"/><path fill="#9D9D98" d="m332 205 4 2-6 9-5-1 2-2-1-3h6z"/><path fill="#F3DDC9" d="m375 43 5 1-3 1 .402 2.379c.93 5.533 1.84 11.062 2.598 16.621-4.493-4.697-5.114-11.311-5.125-17.562z"/><path fill="#BEB394" d="M393 222h3c1.125 5.75 1.125 5.75 0 8-3.062.625-3.062.625-6 1l1-4h2l-2-1z"/><path fill="#0E1847" d="M385 221v2l-5-1 1 7 4-1v3h-6c-1.607-3.215-1.057-6.436-1-10 2.667-1.333 4.167-.671 7 0"/><path fill="#EAEAE9" d="M482 156v3c-3.15 1.05-5.388 1.101-8.687 1.063l-3.012-.028L468 160l1-2c4.445-1.334 8.332-2.292 13-2"/><path fill="#332644" d="M342 140c3.438 1.5 3.438 1.5 6 3l-1 4-1.562-1.937c-3.265-2.763-5.17-3.135-9.438-3.063-2.67 1.413-4.66 3.042-7 5v-4c4.552-2.665 7.73-3.565 13-3"/><path fill="#6B0F17" d="M338 150c3 1 3 1 4 3 .04 2 .043 4 0 6l-4 2z"/><path fill="#F3E4DE" d="M405 83c3.716-.2 4.772-.152 8 2 5.248.344 9.056-.022 14-2-1.312 2-1.312 2-4 4-3.688.375-7.304.203-11 0h-3c-2.187-2-2.187-2-4-4"/><path fill="#101D4B" d="M365 221h2v5h3v-5h2c.25 6.625.25 6.625-2 10v-4h-4l-1 3z"/><path fill="#606268" d="m327 201 5 3-1 5h-5c0-3 0-3 1-5l-2-1z"/><path fill="#0E1A46" d="M444 180h2l-1 4h3c1.688 1.5 1.688 1.5 3 3l1-3 2 1-3 4c-3.083-1.199-6.063-2.477-9-4 .875-3.875.875-3.875 2-5"/><path fill="#B9B08C" d="m338 213 4 2-3 8-1-2-2-1 1-2h-2c1.875-3.875 1.875-3.875 3-5"/><path fill="#4B1830" d="m488 129 2 1a109 109 0 0 1-1 7l-2 1a134 134 0 0 0-3 6c-1.26-2.52-.919-3.854-.562-6.625l.308-2.477L484 133l3-1z"/><path fill="#574C65" d="M451 105h4l.375 2.938L456 111l2 1v-3h7l-3 2q-1.848 1.306-3.687 2.625L455 116l-1-10z"/><path fill="#19234D" d="m337 210 5 1v3l-2.375.313c-2.955.463-2.955.463-4.625 3.687h2v2l-4-2c1.125-2.972 2.223-5.334 4-8"/><path fill="#CCCDCD" d="M341 134v1l-1.863.402-2.45.536-2.425.527c-2.407.534-2.407.534-5.262 1.535l-1-5c4.845-1.514 8.26-.366 13 1"/><path fill="#17234D" d="m322 197 4 2-1 3h-2l-1 2h-4l-2 1c1.27-3.914 2.512-5.79 6-8"/><path fill="#0F1A48" d="m440 186 4 1 1 5-5-3 2 6c-3.875-1.75-3.875-1.75-5-4 1.438-2.625 1.438-2.625 3-5"/><path fill="#B5A683" d="m443 178 5 1v2h2l1 6-3-1v-2h-3l1-4-3 1z"/><path fill="#8D1420" d="m440.75 101.875 3.547.055L447 102l-2 3-15-1c4.223-2.111 6.14-2.217 10.75-2.125"/><path fill="#D1C79E" d="M416 211h5v2l2 1-1 1-1 3h-4l1-4h-3z"/><path fill="#391F39" d="M373.063 152.938 376 153v1h-5l.125 2.375C371 159 371 159 369 161c-2.625.125-2.625.125-5 0v-3l5 1-.062-2.437c.09-3.745.324-3.548 4.125-3.625"/><path fill="#6F0E18" d="m423 146-1 2 2 1c-2.709 1.354-5.01 1.065-8 1v-4c3.133-1.044 3.99-.934 7 0"/><path fill="#D2D5D9" d="M490 112h2c.25 5.625.25 5.625-2 9l-3-1 1-6h2z"/><path fill="#7A2B3A" d="M439 100c5.633-.24 10.545.615 16 2v1c-1.58.392-3.164.763-4.75 1.125l-2.672.633c-2.907.273-4.145-.223-6.578-1.758l4-1-6-1z"/><path fill="#FDF1E1" d="m424 66 2 1c-.37 7.262-.37 7.262-3.562 11L420 80l-2-1 1.875-1.437c2.936-3.541 3.4-7.101 4.125-11.563"/><path fill="#EED9DB" d="m395 25 2 2c-3.625 4.875-3.625 4.875-7 6l-1 2h5v1h-7c.26-3.522 1.243-4.213 4-6.625L394 27z"/><path fill="#0C1746" d="M347 215h2c.22 2.703.329 4.44-1.062 6.813-2.93 1.795-5.585 1.377-8.938 1.187l1-4 1 3c3.752-1.79 3.752-1.79 5.813-5.187z"/><path fill="#271B38" d="M297 169c4.128.607 7.332 2.038 11 4-2.862 1.43-4.934.6-8 0l-1 5c-1.858-3.135-2.201-5.375-2-9"/><path fill="#554B51" d="m434 164 2 1c-4.757 2.805-9.464 4.233-15 4l-2-2 2.773-.402 3.602-.536 3.586-.527c2.946-.37 2.946-.37 5.039-1.535"/><path fill="#F79F2C" d="M386 71c3.26 3.17 6.222 6.4 9 10-3 0-3 0-4.824-1.75L388.313 77l-1.887-2.25L385 73z"/><path fill="#7E1421" d="m480 126 7 2c.625 1.875.625 1.875 1 4l-2 2v-2h-3z"/><path fill="#921521" d="M367 128v1h-5v3l-8 1 1-3c4.092-1.808 7.557-2.212 12-2"/><path fill="#9D2535" d="M412 81c3.375.25 3.375.25 7 1 1.438 2.063 1.438 2.063 2 4h-8z"/><path fill="#F3B061" d="M420 59c2.375.25 2.375.25 5 1 1.884 2.883 2.273 5.218 2.25 8.625l.016 2.352C427 73 427 73 425 75l.125-3.687c-.008-4.488-.684-7.706-3.75-11.126z"/><path fill="#E5BE74" d="M399 224h6l-1 6h-7c3-2 3-2 6-2v-2l-4 1z"/><path fill="#D0C096" d="m326 199 5 3h-3c-2.104 1.854-2.104 1.854-4 4l-2 2c-.625-2.312-.625-2.312-1-5l2-3 2 1z"/><path fill="#2D3959" d="m388 152 3 1-1 12h-8v-5l1 4h6z"/><path fill="#911621" d="M449 101h8l2 4-3 2-1-3h-6z"/><path fill="#981D2A" d="m387 99 6 1 1 4-4 1c-3-3.75-3-3.75-3-6"/><path fill="#BCB9A0" d="M436 190c2.789 1.394 4.097 3.562 6 6l2 2h-2l-1 5-4-1 3-1c-.515-3.812-1.26-5.38-4-8z"/><path fill="#C2C6CB" d="M405 166c.563 1.938.563 1.938 1 4-1 1-1 1-4.062 1.063L399 171l1-4z"/><path fill="#361D39" d="M460 136c3.125-.187 3.125-.187 6 0-1.964 1.506-3.783 2.891-6 4l1 5-4-1c.547-3.375 1.055-5.082 3-8"/><path fill="#ECEBE9" d="M492 129c2.106 1.708 2.938 2.521 3.293 5.262l-.106 2.425-.082 2.45L495 141c-2-1-2-1-2.668-2.996l-.52-2.441-.542-2.434C491 131 491 131 492 129"/><path fill="#8A1420" d="M381 127v2h-2v2h-8c2-3 2-3 3.875-3.687C377 127 377 127 381 127"/><path fill="#4D152C" d="m396 125 3 1v2h-2l3 4c-2.169-.506-4-1-6-2l-1 2-1-5 2-1v2h2z"/><path fill="#84141F" d="M278 149h2l1 8-3 1c-.879-6.152-.879-6.152-1-8z"/><path fill="#DADFE4" d="M417 100c3.313.75 3.313.75 6 2v1l-2.875.938c-2.986.936-2.986.936-5.125 2.062l-3-2c2.125-2.125 2.125-2.125 5-4"/><path fill="#90131E" d="M411 90c2.468 1.152 4.048 2.048 6 4v3c-1.875-.25-1.875-.25-4-1-1.385-2.147-2-3.439-2-6"/><path fill="#243255" d="m307 85 2 4c-1.812 2-1.812 2-4 4h-3c1.186-3.375 2.276-5.647 5-8"/><path fill="#F1DDD4" d="M380 37q2.723 1.68 5.438 3.375l3.058 1.898C391 44 391 44 392 46c-4.972-1.764-9.434-4.394-14-7z"/><path fill="#95131E" d="M394 30c2 2 2 2 2 6l-7-1c1-3 1-3 3.063-4.187z"/><path fill="#443954" d="m376 138 3 1 1 8h-2l-1-5h-5z"/><path fill="#EBECEE" d="m270 133 2 1c.125 3.375.125 3.375 0 7l-2 2c-1.491-2.982-1.12-5.716-1-9z"/><path fill="#B2BCC4" d="m370 124 6 2c-3.549 2.366-4.576 2.109-8.687 1.625l-3.012-.336L362 127v-1l3.438-.437c3.37-.175 3.37-.175 4.562-1.563"/><path fill="#9F2A34" d="M397 26c2.688.313 2.688.313 5 1l-6 6-2-4c1.188-1.562 1.188-1.562 3-3"/><path fill="#0E1A47" d="M389 224h2v2l4 2-2 1-2-1-1 3h-2c-.043-2-.04-4 0-6z"/><path fill="#0F1D4C" d="M425 204c2.786 1.393 3.524 3.304 5 6l1 3c-3.335-1.38-5.186-2.85-7-6z"/><path fill="#BAB6A5" d="M440 183h2v2l6 2-2 1v2l3 1-4 1-.812-2.437L443 187l-3-1z"/><path fill="#E4E6E7" d="M439 162h10l1 2c-3.25.688-3.25.688-7 1z"/><path fill="#513047" d="m422 146 5 1v7l-1-4-5 1z"/><path fill="#7C111A" d="m479 117 2 1-5 6 2 1-7-1c2.516-2.606 5.051-4.894 8-7"/><path fill="#F8AE3F" d="m381 223 5 1v3h-3v3h-2z"/><path fill="#CCBD95" d="m406 219 4 3-1 6h-4l.5-2.25c.62-2.94.62-2.94.5-6.75"/><path fill="#CCBA87" d="m344 215 3 1c-.25 1.875-.25 1.875-1 4-2.062 1.25-2.062 1.25-4 2 .875-4.75.875-4.75 2-7"/><path fill="#460D22" d="M390 154c2.438.375 2.438.375 5 1l1 2-4 1-1 6h-1z"/><path fill="#44162B" d="M349 132h3l-1 5-2-1-1 2-5-1 2-1 2 1z"/><path fill="#C4CACF" d="m469.688 156.375 2.449.336L474 157v1c-1.433.39-2.872.762-4.312 1.125l-2.426.633C465 160 465 160 462 158c3.353-2.236 3.907-2.173 7.688-1.625"/><path fill="#E7E7E6" d="m274 152 2 1c.125 2.875.125 2.875 0 6l-2 2c-1.366-2.732-1.128-4.982-1-8z"/><path fill="#EEEEEF" d="M484 105c3.807 1.444 5.266 3.35 7 7l-1 2h-2l-.875-2.812c-1.012-3.286-1.012-3.286-3.125-6.188"/><path fill="#202E4F" d="m298 100 2 3-2 4-3-1c.573-2.867.861-3.861 3-6"/><path fill="#4C2D42" d="M325 165h3c-.498 3.688-1.1 5.605-4 8z"/><path fill="#4A1F34" d="M352 159h2l1 4-1.812.438c-1.75.45-3.475.99-5.188 1.562v-3l4-1z"/><path fill="#5A152B" d="M316 123c2.622 1.049 3.794 1.65 5.25 4.125L322 129l-2 3c-3-4.75-3-4.75-3-7z"/><path fill="#EBECEC" d="M394 122c-1.187 1.563-1.187 1.563-3 3-2.687-.312-2.687-.312-5-1 1.858-3.716 4.555-3.07 8-2"/><path fill="#0F1A45" d="M334 208h2c-.349 3.255-1.021 4.019-3.562 6.25L330 216c1.125-2.972 2.223-5.334 4-8"/><path fill="#D7D7D7" d="m310 183 6 1-1 3-6-2z"/><path fill="#C6C7C8" d="m304 181 8 1c-1.687 1.625-1.687 1.625-4 3-2.75-.812-2.75-.812-5-2z"/><path fill="#E6E4E1" d="M348 178c-2 2-2 2-5 2.25-3-.25-3-.25-5-2.25 3.695-.95 6.305-.95 10 0"/><path fill="#AEB5BC" d="M336 177h7l-3 2 2 2-7-1z"/><path fill="#EAE8E5" d="M335 132h9v3l-9-2z"/><path fill="#D9DCE3" d="M360 123h9v3l-9-2z"/><path fill="#D7DADE" d="M391 120h6l2 5c-3.375-1.186-5.647-2.276-8-5"/><path fill="#D8B069" d="M393 222h3v5l-5-1z"/><path fill="#1F2E5B" d="m358 217 5 1 1 4c-2.437-.812-2.437-.812-5-2z"/><path fill="#D6BD81" d="M327 211h4l-1 5-5-1z"/><path fill="#F9AF3F" d="M409 212h4l1 6-2 1-.375-2.937L411 213z"/><path fill="#3A3341" d="m457 155 5 3-1.75.25c-2.866.955-4.25 2.535-6.25 4.75 1.875-5.75 1.875-5.75 3-8"/><path fill="#771019" d="M467 119h5l-1 4-4-1z"/><path fill="#F3DFC7" d="M405 83c3.716-.2 4.772-.152 8 2l-1 2c-3 0-3 0-5.187-2z"/><path fill="#9A1F2E" d="m427 77 2 1v4l-3 1-2-2z"/><path fill="#D0CAA6" d="M335 211c0 2.84-.403 5.237-1 8l-4-2z"/><path fill="#C5BB98" d="M407 213h4l-1 4v-3h-2l1 5-4-4z"/><path fill="#101C45" d="M325 204h2l-2 6h-3c1.875-4.875 1.875-4.875 3-6"/><path fill="#D2D4D8" d="m484 152 3 1-3 5-4-3 3-1z"/><path fill="#25283D" d="m491 118 2 2-2 6-1-2h-2z"/><path fill="#D9DDE2" d="m294 115-1 2c-3.062.625-3.062.625-6 1v-3c4.75-1.125 4.75-1.125 7 0"/><path fill="#221E1F" d="m278 111 1 3c-2.675 1.663-5 3-8 4v-2a150 150 0 0 1 6-4z"/><path fill="#F8A330" d="M394 89c.688 1.688.688 1.688 1 4-1.437 2.75-1.437 2.75-3 5-.687-1.687-.687-1.687-1-4 1.438-2.75 1.438-2.75 3-5"/><path fill="#9F2837" d="M375 51h1c.625 3.375.625 3.375 1 7l-2 2-2-1z"/></svg>