<svg xmlns="http://www.w3.org/2000/svg" id="Layer_1" data-name="Layer 1" viewBox="0 0 191 64"><defs><style>.cls-2{fill:#1c1463}</style></defs><path d="M65.24 32c0 13.74-11.17 24.88-24.95 24.88S15.34 45.74 15.34 32 26.51 7.12 40.29 7.12 65.24 18.26 65.24 32m-2.64-1.93c-.65-6.96-5.04-13.52-11.16-16.89-12.59-6.92-28.42-.44-32.27 13.35-.16.57-.87 3.2-.48 3.46l.69.08c.85-7.81 6.42-14.79 13.79-17.49 10.74-3.94 22.52 1.26 27 11.64.82 1.9 1.27 3.79 1.58 5.83l.84.02Zm-9.39 8.6V20.45c-.56-.42-1.73-.28-2.47-.25-2.31.1-5.82.69-7.94 1.62-.86.38-1.58.99-2.47 1.28-1.56-1.1-3.19-1.71-5.04-2.14s-4.2-.76-6.06-.77c-.46 0-.85.05-1.28.18v18.47c0 .64 2.17.38 2.64.43 2.68.29 5.71.75 8.12 1.95.53.27 1.22.98 1.78.94.45-.03 1.46-.87 1.98-1.1 2.7-1.24 6.35-1.65 9.32-1.97.48-.05 1.3.38 1.44-.42Zm-34.5-4.17h2.82l.24-1-1.69-.78 1.51-.79.03-1h-2.9v.85l1.71-.17-1.71 1.19 1.88.94-1.88.09v.68Zm40.65-.34h2.65s.4.33.42-.08c0-.06-.19-.3-.18-.52.08-1.16.48-2.43-1.27-2.48-1.98-.06-1.63 1.65-1.62 3.08m.51.51-.43-.17-.23.28-.36 2.43 2.89.69.51-2.89h-.68l-.42 2-.61-.13.34-1.26c-1.15-.83-.44.45-.77.92l-.6.17.34-2.04ZM19.44 37.6c-.13.33-.1.6.21.81l.85-.85c.36.63 1.22.67 1.63.1.44-.6-.32-2.08-.36-2.82l-2.9.68.17.85 1.19-.34c.53.93-.7 1.3-.8 1.57Zm41.97 1.15-2.74-.95-.33.52 1.02.43-.59 1.49-.86-.47-.43.85 2.9 1.02.17-.85c-.32.02-1.17-.06-1.13-.52l.46-1.17 1.34.32.18-.67ZM22.9 40.46c-.78.13-1.83-.09-2.65 0 .2.94.71.36 1.12.66.25.19.74 1.12.38 1.35l-.47.03.43.85c.53 0 1.41-2.18 2.12-2.23l-.33-1.01c-.09-.07-.45.32-.59.34Zm35.09 1.18-.43-.67c-.76.69-1.81 1.6-.94 2.64 1.3.58 1.24-.9 2.22-1.11.06.7-.26 1.4-1.02 1.36l.26.68c1.28-.26 2.3-3.06.35-2.73-.67.11-.93 1.28-1.37 1.19-.59-.12.39-1.55.94-1.36Zm-32.91 3.63c.22-.19.99-.17.9-.91-.04-.28-1.19-1.98-1.39-2.02l-2.46 1.53c.53.75 1.49 2.81 2.62 2.05.23-.16.16-.51.33-.65m33.08-.22-2.99-.81c-1.05.56-.22 1.27.12 2.05.21.47.43.96.48 1.48 1.18-.58.04-.82.5-1.63.61-1.04 1.24-.25 1.38-.32l.51-.78Zm-33.64 1.88c-.06.26.04.27.18.41.91.91 2.49 2.22 3.38.5.67-1.28-.68-1.97-1.45-2.78l-2.11 1.86Zm29.54.84c.52-.53.33-1.46-.43-1.54-.69-.07-1.72 1.1-2.3 1.46l1.8 2.29.56-.42c-.24-.43-.96-.9-.3-1.2.74-.34 1.46.77 2.04-.17l-1.37-.43Zm-21.69 1.37-2.55-1.19-1.37 2.46 2.56 1.45.17-.68c-.48-.07-1.08-.39-1.49-.64-.21-.13-.36-.08-.22-.47.26-.69 1.47.48 1.53.42l.17-.67c-.48-.07-1.42-.54-.76-1.03.45.35 1.33.44 1.45 1.02l.51-.68Zm17.75-.5-.93.32-.08 1.88c-.95-.54-1.24-1.58-2.39-.85l1.2 2.72.7-.28-.52-1.42 1.53 1.02.17-2.04.68 1.53.85-.17zm-15.7 3.91-1.81-.68.76-2.14-.83-.42-.86 2.89 2.46.86.27-.51Zm11.96-2.39-.85.17.86 2.89.69-.26-.69-2.8Zm-10.25.34-.68-.17-.5 2.78.67.28.18-1.19 1.53.17-.17 1.36.85.17.34-3.06h-.67l-.2 1-1.51-.16.17-1.19Zm9.05 0c-1.21-.05-1.18.88-1.96 1.53l-.28-1-.66-.02.34 2.89c1.45.14.3-.77.94-1.36.99.11 1.05 1.71 2.13.77l-1.52-1.39zm-4.46.53h-.81L38.7 53.9l.66-.02.31-.66c1.57-.37 1.2.54 1.59.78.21.13.46.08.69.08l-1.21-3.04Z" class="cls-2"/><path d="M49.96 23.6v12.17c-1.32.65-2.99.61-4.48.99-.94.24-2.39 1.02-3.12 1.15-.32.05-.26 0-.21-.22.54-3-.36-8.11-.05-11.45.03-.3.02-.55.2-.83.64-.99 6.33-2.02 7.67-1.8ZM38.86 37.9c-1.11-.27-2.14-.82-3.24-1.11-1.45-.38-2.95-.46-4.4-.8-.19-.26-.19-.58-.22-.89-.32-3.78.29-7.88.18-11.67 2.6.39 5.31.82 7.68 1.96zM23.81 43.88c1.61 1.97-.43 2.03-.65.17zM25.37 44.54l-.52.09L24 43.6c.55-1.15 1.56.69 1.36.94ZM21.44 35.69l.18 1.6c-.54.7-1.53-1.77-.18-1.6M53.72 46.93c.25.24-.81 1.54-1.2 1.28-.84-.55.56-1.48 1.2-1.28" class="cls-2"/><text style="font-family:Roboto-Bold,Roboto;font-size:13.06px;font-weight:700;fill:#1c1463" transform="translate(68.76 35.82)"><tspan x="0" y="0">ElHakim Academy</tspan></text></svg>