<svg xmlns="http://www.w3.org/2000/svg" id="Layer_1" data-name="Layer 1" viewBox="8.67 52.37 132.55 45.26">
  <defs>
    <style>
      .cls-1 {
        letter-spacing: -.03em;
      }

      .cls-2 {
        letter-spacing: .01em;
      }

      .cls-3 {
        letter-spacing: 0em;
      }

      .cls-4 {
        font-family: Montserrat-Medium, Montserrat;
        font-size: 5.88px;
        font-weight: 500;
      }

      .cls-4, .cls-5 {
        fill: #3096d2;
      }

      .cls-6 {
        letter-spacing: 0em;
      }

      .cls-7 {
        letter-spacing: .02em;
      }

      .cls-8 {
        fill: #363636;
        font-family: Montserrat-Bold, Montserrat;
        font-size: 15.74px;
        font-weight: 700;
      }

      .cls-9 {
        letter-spacing: .01em;
      }

      .cls-10 {
        fill: #1a1f4d;
      }

      .cls-11 {
        letter-spacing: .02em;
      }

      .cls-12 {
        letter-spacing: .02em;
      }
    </style>
  </defs>
  <g>
    <text class="cls-8" transform="translate(52.64 74.94)"><tspan x="0" y="0">Da</tspan><tspan class="cls-6" x="22.71" y="0">r</tspan><tspan x="29.43" y="0">k Ent</tspan><tspan class="cls-9" x="72.56" y="0">r</tspan><tspan x="79.58" y="0">y</tspan></text>
    <text class="cls-4" transform="translate(62.89 83.84)"><tspan class="cls-11" x="0" y="0">Da</tspan><tspan class="cls-2" x="8.61" y="0">r</tspan><tspan class="cls-11" x="11.1" y="0">k </tspan><tspan class="cls-1" x="16.54" y="0">W</tspan><tspan class="cls-11" x="22.96" y="0">eb Moni</tspan><tspan class="cls-3" x="47.98" y="0">t</tspan><tspan class="cls-7" x="50.42" y="0">o</tspan><tspan class="cls-2" x="54.28" y="0">r</tspan><tspan class="cls-11" x="56.77" y="0">i</tspan><tspan class="cls-12" x="58.52" y="0">n</tspan><tspan class="cls-11" x="62.67" y="0">g </tspan></text>
  </g>
  <g>
    <g>
      <path class="cls-5" d="M8.67,59.87c7.9.21,14.54-2.21,20.13-7.5,5.26,5.15,11.76,7.5,19.22,7.55-.67,4.78-2.35,9.11-5.08,13.04,1.29-3.16,2.44-6.35,2.68-9.9-6.27-.44-11.84-2.56-16.84-6.38-4.92,3.79-10.51,5.92-16.9,6.38.16,1.9.26,3.74.49,5.57.52,4.13,1.57,8.11,3.16,11.97,1.85,4.53,5.16,6.76,10.06,6.62.12,0,.23.01.38.13-.48.13-.96.3-1.45.39-2.14.4-4.28.32-6.39-.18-1.84-.44-3.23-1.49-4.14-3.16-2.89-5.3-4.42-10.99-4.96-16.96-.23-2.48-.24-4.98-.35-7.57Z"/>
      <g>
        <path class="cls-10" d="M41.3,71.61c-.52-.02-1.04-.09-1.54-.25-1.45-.46-2.9-.93-4.35-1.4-1.24-.39-2.49-.75-3.76-1.01-.89-.18-1.77-.34-2.67-.43-1.16-.12-2.3.04-3.44.28-1.07.23-2.12.56-3.17.89-.71.22-1.42.46-2.14.65-.49.13-1,.17-1.49.27-.18.04-.37.11-.54.18-.16.07-.22.22-.13.34.11.13.06.21-.03.31-.06.06-.11.12-.17.17-.21.18-.43.36-.65.54-.45.39-.74.87-.7,1.49.02.27.13.34.37.2.23-.14.46-.3.68-.45.36-.25.74-.41,1.17-.47.55-.07,1.06.05,1.57.24.68.25,1.03.73,1.07,1.43.04.76-.34,1.43-1.19,1.66-.52.14-1.04.08-1.55-.02-.35-.07-.69-.15-1.06-.23,2.02,2.14,3.6,4.55,4.81,7.23.01-.06.03-.09.03-.12.15-1.04.18-2.09.18-3.14,0-.83,0-1.67-.02-2.5,0-.35,0-.7-.02-1.05,0-.39-.03-.79-.01-1.19,0-.24.07-.48.11-.75.14.09.25.14.35.21.94.61,1.71,1.4,2.47,2.21.88.94,1.75,1.89,2.66,2.81,1.01,1.02,2.09,1.95,3.32,2.71.62.38,1.27.71,1.95.95.73.26,1.47.41,2.24.47.49-.39.96-.79,1.43-1.21-.6.07-1.2.03-1.8-.08-.96-.18-1.86-.53-2.7-1.02-.54-.32-1.11-.64-1.58-1.05-1.1-.96-2.15-1.98-3.2-2.99-.8-.76-1.57-1.55-2.35-2.33-.04-.04-.08-.08-.13-.14.35.05.66.1.97.13,1.11.13,2.22.16,3.33.16,1.16,0,2.3-.12,3.43-.38,1.44-.33,2.84-.8,4.21-1.37.79-.33,1.59-.6,2.41-.82.86-.24,1.72-.47,2.53-.85.18-.08.36-.18.54-.26-.48-.03-.95-.01-1.42-.03ZM24.86,73.66c-.5-.16-1-.32-1.49-.5-.96-.37-1.92-.75-2.88-1.14-.31-.12-.62-.1-.93-.11-.14,0-.29-.03-.44-.04,0-.02,0-.05-.01-.07.08-.03.15-.08.23-.1.33-.08.65-.13.98-.22.65-.17,1.31-.34,1.96-.54.65-.19,1.3-.41,1.98-.63-.13.59-.18,1.17-.11,1.75.08.6.37,1.1.76,1.55-.02.02-.03.04-.05.05ZM27.02,74.05c-.27-.03-.56-.05-.82-.15-.69-.27-1.08-.82-1.27-1.51-.17-.64-.1-1.24.28-1.8.1-.15.25-.22.41-.26.17-.04.3.04.38.23.18.41-.06,1.17-.43,1.41-.11.07-.24.1-.37.15.1.31.28.58.52.81.7.67,1.84.83,2.7.39.88-.46,1.38-1.59,1.08-2.48-.07-.22-.22-.41-.32-.62-.03-.07-.06-.14-.09-.21,0-.01.03-.03.04-.04.07.04.14.08.2.13.32.27.47.62.54,1.03.16,1.03-.38,2.14-1.34,2.67-.47.26-.99.33-1.52.27ZM36.78,72.55c-1.18.48-2.4.87-3.64,1.14-.71.15-1.44.24-2.16.35-.36.06-.72.12-1.08.16-.2.02-.41.02-.62.02-.05,0-.11-.03-.16-.05,0-.02,0-.04,0-.06.08-.07.15-.14.23-.2.78-.53,1.16-1.28,1.24-2.2.06-.61-.07-1.17-.38-1.71-.01-.02-.02-.05-.05-.12.36.05.7.08,1.04.13,1.1.17,2.16.5,3.22.85.73.23,1.46.45,2.18.69.38.13.75.29,1.12.44.05.02.09.05.16.09-.38.16-.73.31-1.08.45Z"/>
        <path class="cls-10" d="M15.66,68.87c.34-.03.69-.08,1.03-.1.57-.03,1.15,0,1.71-.17,1.17-.34,2.34-.7,3.5-1.07,1.23-.4,2.46-.82,3.72-1.1.97-.21,1.96-.34,2.96-.31.88.03,1.74.18,2.6.37,1.69.36,3.33.93,4.98,1.44,1.06.33,2.14.61,3.21.93.36.11.72.12,1.08.13.39.01.78.03,1.17.05.09,0,.19.06.28.12-.24.07-.49.16-.73.22-.5.12-1.01.25-1.52.35-.52.1-1.05.05-1.57-.08-1.22-.29-2.44-.57-3.66-.88-1.39-.35-2.77-.74-4.18-.95-1.02-.16-2.06-.22-3.09-.15-.88.06-1.74.24-2.59.48-1.26.37-2.51.77-3.77,1.1-.63.17-1.29.27-1.95.31-.46.03-.93-.05-1.39-.14-.6-.12-1.19-.3-1.79-.46,0-.03,0-.07,0-.1Z"/>
      </g>
    </g>
    <path class="cls-10" d="M48.84,63.38c-.22,2.27-.36,4.54-.69,6.79-.86,5.94-2.72,11.54-6.05,16.58-3.17,4.8-7.39,8.4-12.65,10.76-.39.17-.98.15-1.37-.02-1-.4-1.94-.95-3.03-1.5,6.1-2.68,11.43-6.08,15.16-11.91-.28.16-.35.18-.39.23-4.43,5.53-10.45,8.18-17.22,9.44-.3.05-.74-.02-.95-.21-1.54-1.4-3.03-2.84-4.54-4.27.05-.06.1-.12.15-.19.84.16,1.66.36,2.51.46,4.05.49,7.76-.63,11.23-2.56,1.67-.93,3.22-1.98,4.66-3.13.49-.39.96-.79,1.43-1.21.06-.05.12-.1.17-.16l4.39-4.83h.01c1.79-2.39,3.32-5.01,4.61-7.82.96-2.09,1.67-4.29,2.58-6.46Z"/>
  </g>
</svg>