<?xml version="1.0" encoding="UTF-8"?>
<svg version="1.1" xmlns="http://www.w3.org/2000/svg" width="3800" height="800">
<path d="M0 0 C99 0 198 0 300 0 C300 264 300 528 300 800 C234 800 168 800 100 800 C100 602 100 404 100 200 C67 200 34 200 0 200 C0 134 0 68 0 0 Z " fill="#00CFFF" transform="translate(600,0)"/>
<path d="M0 0 C99 0 198 0 300 0 C300 198 300 396 300 600 C234 600 168 600 100 600 C100 468 100 336 100 200 C67 200 34 200 0 200 C0 134 0 68 0 0 Z " fill="#0075FF" transform="translate(300,200)"/>
<path d="M0 0 C1.68380389 1.45962881 3.35236152 2.93716695 5 4.4375 C5.98226562 5.31535156 5.98226562 5.31535156 6.984375 6.2109375 C11.12227772 10.11081926 14.27953433 14.47493016 17.421875 19.203125 C18.81894849 21.18115974 20.23015139 22.79559226 22 24.4375 C22.72703125 23.55449219 23.4540625 22.67148437 24.203125 21.76171875 C44.75060705 -2.9083913 69.56373279 -18.38383211 102 -21.5625 C138.45026782 -23.09382888 138.45026782 -23.09382888 155 -18.5625 C155.72848145 -18.36382324 156.45696289 -18.16514648 157.20751953 -17.96044922 C184.92905036 -10.09137764 209.23660855 6.26445214 223.93017578 31.49023438 C237.76359406 56.66945487 240.1592931 83.52311522 240.12939453 111.68212891 C240.13075111 113.82988515 240.13253248 115.97764116 240.13470459 118.12539673 C240.13924565 123.93041831 240.13750381 129.73542202 240.1343255 135.5404439 C240.13178796 141.61781391 240.13414302 147.69518242 240.13571167 153.77255249 C240.1375279 163.96572138 240.13513993 174.158883 240.13037109 184.35205078 C240.12491492 196.15096764 240.12670313 207.94986726 240.1321975 219.74878371 C240.1367268 229.8797243 240.13738052 240.01065969 240.13475883 250.14160097 C240.13319692 256.19282907 240.13300025 262.24404905 240.13629532 268.29527664 C240.13917186 273.97356099 240.1372024 279.65182292 240.13140106 285.33010483 C240.13007292 287.419568 240.13046849 289.50903304 240.13266373 291.59849548 C240.13537273 294.43740387 240.13199737 297.27623917 240.12698364 300.11514282 C240.12921436 300.95295339 240.13144509 301.79076396 240.13374341 302.65396273 C240.11415081 308.32334919 240.11415081 308.32334919 239 309.4375 C236.01701786 309.5327822 233.05723655 309.56302175 230.07397461 309.55102539 C229.13748581 309.55117142 228.20099701 309.55131744 227.23612976 309.5514679 C224.12484461 309.55076837 221.01361851 309.54297415 217.90234375 309.53515625 C215.75142957 309.53329221 213.60051497 309.53186824 211.44960022 309.53086853 C205.77618242 309.52704225 200.10279005 309.51721102 194.42938232 309.50616455 C188.64498234 309.4959528 182.86057827 309.49137142 177.07617188 309.48632812 C165.71743672 309.47558885 154.35872047 309.45851111 143 309.4375 C142.99503478 308.01400112 142.99503478 308.01400112 142.98996925 306.56174469 C142.90878728 283.41483712 142.81641521 260.26799452 142.71247292 237.12117767 C142.6624622 225.92731578 142.61601844 214.73346079 142.578125 203.53955078 C142.54506783 193.77702109 142.50516195 184.01454684 142.45720994 174.25207853 C142.43208071 169.0883279 142.4102602 163.9246134 142.39665604 158.76081848 C142.38371139 153.88857853 142.36152685 149.01646337 142.33261681 144.14429283 C142.32363698 142.36753894 142.31787361 140.590765 142.31578636 138.81398964 C142.2900388 120.20554741 141.95708166 101.73211659 130 86.4375 C129.51015625 85.80972656 129.0203125 85.18195313 128.515625 84.53515625 C120.10487425 75.02101493 107.64471573 72.27286908 95.51953125 71.22265625 C81.93571822 70.66866714 69.15519553 74.85286166 58.8125 83.5625 C48.02947303 93.82076428 42.414955 107.301811 41.8613348 122.15870476 C41.84988024 123.57581378 41.84369169 124.99297171 41.84178162 126.41012573 C41.83437465 127.58775331 41.83437465 127.58775331 41.82681805 128.78917134 C41.81150545 131.410064 41.80309941 134.03093229 41.79467773 136.65185547 C41.7850943 138.53449211 41.77508395 140.41712663 41.76467896 142.29975891 C41.73767424 147.40459905 41.71664069 152.5094484 41.69667697 157.61432028 C41.67479005 162.95148484 41.64741461 168.28862117 41.62062073 173.62576294 C41.57073042 183.72972314 41.52577801 193.83369904 41.48259836 203.9376899 C41.43319469 215.44186097 41.37828817 226.94600372 41.32291877 238.45014739 C41.20915495 262.11257183 41.10230372 285.77502344 41 309.4375 C28.2396613 309.46062121 15.47932755 309.47841395 2.71897221 309.48931217 C-3.20550715 309.49454149 -9.12997222 309.50164001 -15.05444336 309.51293945 C-20.76672571 309.52376661 -26.47899428 309.52977647 -32.19128609 309.53237724 C-34.37588277 309.5342318 -36.56047865 309.537853 -38.7450695 309.54323006 C-41.79352349 309.55043821 -44.84191979 309.55149104 -47.89038086 309.55102539 C-48.80315796 309.55462067 -49.71593506 309.55821594 -50.65637207 309.56192017 C-56.88594784 309.55155216 -56.88594784 309.55155216 -58 308.4375 C-58.10124441 305.96926369 -58.1371336 303.52877165 -58.13130188 301.05992126 C-58.13447545 299.88725947 -58.13447545 299.88725947 -58.13771313 298.69090754 C-58.14374235 296.05035362 -58.14271087 293.40984711 -58.1418457 290.76928711 C-58.14487556 288.88379332 -58.14839653 286.99830026 -58.15237427 285.11280823 C-58.16028182 281.03947301 -58.16541537 276.96614664 -58.16866493 272.8928051 C-58.1745692 266.44035534 -58.19110779 259.98796094 -58.21000671 253.53553772 C-58.21634503 251.32638077 -58.22267065 249.11722378 -58.22898388 246.90806675 C-58.23214969 245.80125305 -58.2353155 244.69443936 -58.23857725 243.55408585 C-58.28062393 228.52784798 -58.31358155 213.5016345 -58.32592773 198.4753418 C-58.33433408 188.34837296 -58.35692703 178.22153983 -58.3952834 168.09463888 C-58.41497186 162.73857945 -58.42747303 157.38272258 -58.42244911 152.02662468 C-58.41776892 146.97453333 -58.43179047 141.922824 -58.45946121 136.87080956 C-58.46631901 135.02793889 -58.46655874 133.18502825 -58.45926094 131.34215927 C-58.39624248 113.6218028 -60.49709055 96.86598602 -72.9921875 83.2890625 C-81.27657479 75.64937461 -91.90832495 72.16272491 -103 71.4375 C-103.7115625 71.37304688 -104.423125 71.30859375 -105.15625 71.2421875 C-117.19574761 70.64021262 -129.32040536 74.37752694 -139 81.4375 C-140.051875 82.159375 -141.10375 82.88125 -142.1875 83.625 C-156.83311789 98.27061789 -158.29681904 116.68174155 -158.31884766 136.19775391 C-158.32815732 138.09083479 -158.33832752 139.9839116 -158.34928894 141.87698364 C-158.376486 146.99192223 -158.39170772 152.10683342 -158.40471697 157.22182512 C-158.42039272 162.57633113 -158.4471687 167.93078159 -158.4727478 173.2852478 C-158.51945708 183.41386045 -158.55623913 193.54248364 -158.58942068 203.67114866 C-158.63486081 217.36567024 -158.69570481 231.06012292 -158.75566864 244.75458717 C-158.84967269 266.3155235 -158.92315525 287.87647987 -159 309.4375 C-192 309.4375 -225 309.4375 -259 309.4375 C-259 203.1775 -259 96.9175 -259 -12.5625 C-227.65 -12.5625 -196.3 -12.5625 -164 -12.5625 C-162.14034925 -10.70284925 -162.75912451 -7.61360881 -162.68359375 -5.12109375 C-162.64169922 -3.81591797 -162.59980469 -2.51074219 -162.55664062 -1.16601562 C-162.51682392 0.2226533 -162.47711175 1.61132522 -162.4375 3 C-162.39432011 4.39259183 -162.350706 5.78517028 -162.30664062 7.17773438 C-162.20014124 10.59754801 -162.09813077 14.01743763 -162 17.4375 C-161.42209717 16.77508301 -160.84419434 16.11266602 -160.2487793 15.43017578 C-145.67559208 -1.05748389 -127.86742437 -11.0584229 -107 -17.5625 C-106.278125 -17.7898584 -105.55625 -18.0172168 -104.8125 -18.25146484 C-71.16453101 -28.31029013 -27.63968661 -22.11174929 0 0 Z " fill="#0B1729" transform="translate(1361,265.5625)"/>
<path d="M0 0 C99 0 198 0 300 0 C300 132 300 264 300 400 C234 400 168 400 100 400 C100 334 100 268 100 200 C67 200 34 200 0 200 C0 134 0 68 0 0 Z " fill="#3D30EE" transform="translate(0,400)"/>
<path d="M0 0 C0.90185532 0.00202423 1.80371063 0.00404846 2.7328949 0.00613403 C3.67753098 0.00438171 4.62216705 0.00262939 5.59542847 0.00082397 C8.73436797 -0.00359624 11.87325164 -0.00065595 15.01219177 0.00271606 C17.18313101 0.00204307 19.35407018 0.00107309 21.52500916 -0.00018311 C26.08145361 -0.00166031 30.6378785 0.0004952 35.19432068 0.00515747 C41.04920763 0.01085477 46.90404875 0.00757588 52.75893402 0.00158501 C57.24374235 -0.00202 61.72853973 -0.0008823 66.21334839 0.0017128 C68.37282313 0.00238224 70.53229886 0.00155307 72.69177246 -0.00076675 C75.70420485 -0.00329229 78.7165619 0.00054592 81.72898865 0.00613403 C82.63084396 0.0041098 83.53269928 0.00208557 84.46188354 0 C90.61667946 0.02126625 90.61667946 0.02126625 91.73094177 1.13552856 C91.84022068 3.3248081 91.87786962 5.51766439 91.88916016 7.7096405 C91.89656712 8.75222799 91.89656712 8.75222799 91.90412372 9.81587785 C91.91957201 12.16209027 91.92787904 14.50827517 91.93626404 16.85452271 C91.94583681 18.52952825 91.95584653 20.20453135 91.96626282 21.87953186 C91.99338307 26.44129504 92.01435395 31.00306864 92.0342648 35.56486821 C92.0560806 40.32683939 92.08349077 45.08877818 92.11032104 49.85072327 C92.16030771 58.87466075 92.2052243 67.89861614 92.24834341 76.92258877 C92.29766484 87.19329642 92.3526018 97.4639716 92.408023 107.73464787 C92.52193471 128.86824453 92.62875364 150.00187218 92.73094177 171.13552856 C93.34233505 170.51389328 93.95372833 169.892258 94.58364868 169.25178528 C95.38917679 168.43829117 96.1947049 167.62479706 97.02464294 166.78665161 C97.82166122 165.97939133 98.6186795 165.17213104 99.43984985 164.34040833 C103.96216662 159.98826312 109.26562841 157.18187483 114.73094177 154.13552856 C115.66551208 153.60056763 116.6000824 153.06560669 117.56297302 152.51443481 C150.86866564 134.58060033 193.40744792 134.24038448 229.12449646 144.32449341 C258.18850796 153.36820324 283.13111652 171.39464867 300.73094177 196.13552856 C301.32382996 196.96407349 301.32382996 196.96407349 301.92869568 197.80935669 C314.85052767 216.15002146 322.64002614 236.98719779 327.48094177 258.76052856 C327.77919861 260.10002563 327.77919861 260.10002563 328.08348083 261.46658325 C331.12791284 275.94721779 332.14350094 290.19562284 332.10594177 304.94802856 C332.10506561 305.79591949 332.10418945 306.64381042 332.10328674 307.51739502 C331.93922902 355.9689215 316.40462416 400.88071378 282.20262146 435.6867981 C278.30463101 439.52400369 274.12667146 442.88981049 269.73094177 446.13552856 C269.20226501 446.5280481 268.67358826 446.92056763 268.12889099 447.32498169 C236.06118949 470.80594444 194.95510011 479.90747992 155.73094177 474.01052856 C130.57614651 469.68264886 108.93798086 458.02130317 91.73094177 439.13552856 C91.40094177 438.47552856 91.07094177 437.81552856 90.73094177 437.13552856 C90.40094177 447.36552856 90.07094177 457.59552856 89.73094177 468.13552856 C77.23136756 468.15807782 64.73180675 468.17644263 52.23221684 468.18734074 C46.42880564 468.19257 40.62540903 468.19966844 34.82200623 468.21096802 C29.22643324 468.22179535 23.63087432 468.22780507 18.03529167 468.23040581 C15.89535233 468.23226034 13.75541381 468.23588147 11.61548042 468.24125862 C8.62929212 468.24846701 5.6431627 468.24951959 2.65696716 468.24905396 C1.76289154 468.25264923 0.86881592 468.25624451 -0.05235291 468.25994873 C-6.15500607 468.24958073 -6.15500607 468.24958073 -7.26905823 467.13552856 C-7.36878326 464.66044291 -7.40268208 462.21321851 -7.39489937 459.73757935 C-7.39635281 458.94994296 -7.39780625 458.16230658 -7.39930373 457.35080242 C-7.40299053 454.67746318 -7.399465 452.00418001 -7.39604187 449.33084106 C-7.39719263 447.40853343 -7.39877985 445.48622602 -7.40076911 443.56391907 C-7.40496861 438.25496972 -7.40286897 432.94603821 -7.3997829 427.63708878 C-7.39753152 421.92196783 -7.40100709 416.20685006 -7.40376282 410.49172974 C-7.40822234 399.28530575 -7.40724324 388.07888844 -7.40435018 376.87246418 C-7.40209685 367.76923378 -7.40178331 358.66600526 -7.40287399 349.56277466 C-7.40302723 348.26988053 -7.40318046 346.97698641 -7.40333834 345.64491367 C-7.40365804 343.01887894 -7.40398226 340.3928442 -7.40431093 337.76680946 C-7.40708477 313.8141034 -7.40420238 289.86140094 -7.39896833 265.90869546 C-7.39422241 244.02336704 -7.39464702 222.13804443 -7.39942932 200.25271606 C-7.40477913 175.68791099 -7.40689156 151.12310944 -7.40381706 126.55830383 C-7.40349849 123.94163005 -7.40318412 121.32495626 -7.40287399 118.70828247 C-7.40271972 117.42064279 -7.40256544 116.1330031 -7.40240649 114.80634403 C-7.40154106 105.70822637 -7.40300476 96.61011076 -7.40535355 87.51199341 C-7.40815074 76.43279098 -7.40741499 65.35359564 -7.4020728 54.27439404 C-7.3994347 48.61566464 -7.39843256 42.95694709 -7.40172195 37.29821777 C-7.40468269 32.12688184 -7.40309586 26.95556883 -7.3977444 21.784235 C-7.39661926 19.90471736 -7.39721352 18.02519782 -7.39962019 16.14568138 C-7.40262224 13.6082519 -7.39958173 11.07090292 -7.39489937 8.53347778 C-7.39724053 7.78876567 -7.3995817 7.04405355 -7.40199381 6.27677441 C-7.37725809 -0.3427223 -6.50560086 0.02247837 0 0 Z M106.73094177 253.13552856 C91.84669743 272.32624505 87.78707395 296.76230509 90.62742615 320.46340942 C93.11377023 338.03751479 100.01104782 353.54952823 112.73094177 366.13552856 C113.61652771 367.07138794 113.61652771 367.07138794 114.52000427 368.02615356 C125.01170767 378.28676218 141.27095402 384.23177933 155.73094177 385.13552856 C156.51469177 385.18838013 157.29844177 385.24123169 158.10594177 385.29568481 C176.35783217 385.92037749 194.21101898 379.86755934 208.17234802 368.07302856 C222.60240834 354.39987497 230.94492116 333.94979814 231.73094177 314.13552856 C231.78250427 313.07720825 231.83406677 312.01888794 231.88719177 310.92849731 C232.4673866 288.22837482 227.03796471 265.26761281 211.08250427 248.29568481 C196.45925679 234.86270166 177.90411332 228.28533285 158.07859802 228.85037231 C138.15302914 230.54764948 119.93817377 237.60188506 106.73094177 253.13552856 Z " fill="#0B1729" transform="translate(2099.269058227539,106.86447143554688)"/>
<path d="M0 0 C3.81750186 3.47650496 7.1762515 7.25212453 10.4375 11.25 C11.19933594 12.17425781 11.96117188 13.09851563 12.74609375 14.05078125 C39.3622907 47.04224118 49.65337843 88.73404057 49.6875 130.5 C49.68817474 131.24711243 49.68884949 131.99422485 49.68954468 132.76397705 C49.62546271 177.68962663 36.05851799 222.33938095 4.4375 255.25 C3.99712402 255.72147461 3.55674805 256.19294922 3.10302734 256.67871094 C-22.69595836 284.26343513 -59.65569654 299.2279632 -97.15234375 300.53125 C-130.94850096 301.21797831 -162.61555845 294.95357386 -188.5625 272.25 C-188.8925 319.44 -189.2225 366.63 -189.5625 415.25 C-222.5625 415.25 -255.5625 415.25 -289.5625 415.25 C-289.5625 268.73 -289.5625 122.21 -289.5625 -28.75 C-257.8825 -28.75 -226.2025 -28.75 -193.5625 -28.75 C-191.78759454 -26.97509454 -192.32750027 -24.37215098 -192.24609375 -21.96484375 C-192.20419922 -20.79501953 -192.16230469 -19.62519531 -192.11914062 -18.41992188 C-192.07982422 -17.18822266 -192.04050781 -15.95652344 -192 -14.6875 C-191.95681641 -13.45193359 -191.91363281 -12.21636719 -191.86914062 -10.94335938 C-191.76265802 -7.87902665 -191.66064576 -4.81460927 -191.5625 -1.75 C-191.05968506 -2.26949219 -190.55687012 -2.78898437 -190.03881836 -3.32421875 C-171.64024132 -22.0714916 -146.57093838 -32.76986644 -120.5625 -35.75 C-119.7375 -35.85957031 -118.9125 -35.96914062 -118.0625 -36.08203125 C-74.42787942 -41.07074549 -33.28366119 -28.07907324 0 0 Z M-172.875 76.5625 C-188.97772023 95.90580916 -192.20637767 119.8691639 -190.5625 144.25 C-188.17088883 164.05996652 -179.84058845 182.1448948 -164.5625 195.25 C-149.09466809 206.88489409 -129.97284901 212.28890772 -110.75390625 209.74609375 C-92.57852716 206.89194717 -75.728905 198.94662477 -64.4375 184.0625 C-49.6318603 162.7539911 -46.04275497 136.08759686 -50.58813477 110.73950195 C-54.56758015 92.47665351 -64.67343255 75.89153386 -80.3125 65.40625 C-109.83480612 47.2623327 -148.84999932 51.10798873 -172.875 76.5625 Z " fill="#0B1729" transform="translate(3750.5625,281.75)"/>
<path d="M0 0 C0.8509021 0.00432037 1.7018042 0.00864075 2.57849121 0.01309204 C15.47027233 0.08968855 28.05684923 0.58345308 40.6875 3.375 C41.46818848 3.54128906 42.24887695 3.70757812 43.05322266 3.87890625 C79.74787233 11.9289208 112.91683326 31.94689696 133.83203125 63.6484375 C153.10501913 94.53557037 159.83190409 129.42889613 159.875 165.3125 C159.87617828 166.07284546 159.87735657 166.83319092 159.87857056 167.61657715 C159.87467636 189.81347091 159.87467636 189.81347091 157.6875 196.375 C84.4275 196.375 11.1675 196.375 -64.3125 196.375 C-58.24180431 218.22950447 -51.32858855 233.07696192 -31.84375 244.47265625 C-12.47306538 255.17834303 9.44654463 256.77002526 30.6875 251.375 C47.50502177 245.97961759 58.63592122 235.94564574 66.6875 220.375 C67.78505361 218.05923972 68.76343479 215.76669819 69.6875 213.375 C77.76841512 214.66858809 85.52676419 216.60623335 93.37890625 218.89453125 C94.56363022 219.23497971 95.74835419 219.57542816 96.96897888 219.92619324 C100.73078692 221.00827756 104.49044321 222.0976227 108.25 223.1875 C111.97563372 224.26237425 115.70170232 225.33573042 119.42782593 226.40890503 C121.8341159 227.10205879 124.24022663 227.79583515 126.64614868 228.49026489 C135.97638815 231.18055928 145.32316346 233.80609159 154.6875 236.375 C149.8901739 256.7097884 140.33602728 274.59557616 126.6875 290.375 C126.01460937 291.18066406 125.34171875 291.98632812 124.6484375 292.81640625 C100.34565025 321.05182635 63.3391932 336.86116266 26.6875 340.375 C23.65981467 340.52520458 20.63656457 340.56194044 17.60546875 340.578125 C16.75181229 340.58382507 15.89815582 340.58952515 15.01863098 340.59539795 C13.21596493 340.60479683 11.4132821 340.61136145 9.6105957 340.61523438 C6.92040853 340.6248379 4.23102079 340.65586742 1.54101562 340.6875 C-14.48119432 340.7870597 -29.87523754 338.89491448 -45.25 334.25 C-46.25160156 333.9506958 -47.25320312 333.6513916 -48.28515625 333.34301758 C-88.28023143 320.94897411 -122.50195611 293.4177046 -142.25390625 256.39453125 C-164.96523799 212.57066081 -168.69290029 159.45659305 -154.3125 112.375 C-146.97950316 89.26558424 -134.8094145 68.10956985 -118.3125 50.375 C-117.80348145 49.82215332 -117.29446289 49.26930664 -116.77001953 48.69970703 C-86.56615971 16.20839806 -43.96101064 -0.4257529 0 0 Z M-47.3125 99.375 C-47.87710938 99.91640625 -48.44171875 100.4578125 -49.0234375 101.015625 C-56.7761808 109.13754655 -60.16251785 119.62508927 -62.3125 130.375 C-21.0625 130.375 20.1875 130.375 62.6875 130.375 C59.27304435 114.44087365 55.2758849 101.31461507 41.6875 91.375 C13.70171707 73.28869871 -23.62831886 75.77450855 -47.3125 99.375 Z " fill="#0B1729" transform="translate(3224.3125,243.625)"/>
<path d="M0 0 C0.63244629 0.30663574 1.26489258 0.61327148 1.91650391 0.92919922 C14.8203659 7.27422848 26.30573271 15.16300797 36.828125 24.98046875 C38.73204605 26.75084138 40.67891151 28.41385768 42.6875 30.0625 C71.62378508 54.91287445 87.93364895 96.83259174 91 134 C91.33649194 140.05918688 91.34082866 146.12081976 91.3125 152.1875 C91.30976578 153.4064798 91.30976578 153.4064798 91.30697632 154.65008545 C91.26047354 166.98044176 90.77268333 178.93855938 88 191 C87.82307617 191.78922852 87.64615234 192.57845703 87.46386719 193.39160156 C80.47989207 223.77611507 66.63167109 250.4294543 45 273 C43.7934375 274.30130859 43.7934375 274.30130859 42.5625 275.62890625 C21.69795766 297.4559498 -6.75328097 312.07330695 -36 319 C-37.21212158 319.29414795 -37.21212158 319.29414795 -38.44873047 319.59423828 C-65.29163346 325.81065001 -96.26402439 325.58683182 -123 319 C-123.85996582 318.79101074 -124.71993164 318.58202148 -125.60595703 318.36669922 C-154.463879 311.09090586 -179.4762108 296.33203577 -201 276 C-201.74765625 275.30519531 -202.4953125 274.61039063 -203.265625 273.89453125 C-230.96767985 247.30637021 -249.00152274 206.26627752 -250.17700195 167.89257812 C-250.20313561 166.43889348 -250.22331432 164.9850925 -250.23828125 163.53125 C-250.24802979 162.74154816 -250.25777832 161.95184631 -250.26782227 161.13821411 C-250.44151411 143.41448169 -250.18944168 126.33000008 -246 109 C-245.82339844 108.24251465 -245.64679688 107.4850293 -245.46484375 106.70458984 C-238.82874284 79.10947024 -224.42738318 54.4927558 -205 34 C-204.11828125 33.05382812 -203.2365625 32.10765625 -202.328125 31.1328125 C-181.23035948 8.9425943 -152.67967812 -5.97076639 -123 -13 C-122.19191895 -13.19609863 -121.38383789 -13.39219727 -120.55126953 -13.59423828 C-80.76380558 -22.80841522 -36.61829218 -17.86143209 0 0 Z M-131.6484375 97.20703125 C-147.07513059 115.52943251 -151.682015 138.64680618 -150 162 C-147.95546252 182.56848673 -139.86037908 202.53327191 -123.625 215.96484375 C-107.92237107 227.46500628 -89.57134543 233.00971633 -70.15625 230.50390625 C-51.3517822 227.498812 -35.38109097 219.20634465 -23.65234375 203.9453125 C-9.48369833 184.01046042 -6.43219717 158.47748532 -10.1875 134.75 C-13.4702448 116.08200495 -22.23925374 99.15296868 -37.65380859 87.77978516 C-48.40196063 80.4750633 -61.94076261 75.38789814 -75 75 C-75.64066406 74.94972656 -76.28132813 74.89945312 -76.94140625 74.84765625 C-97.42547855 73.87592606 -117.62761866 82.49629911 -131.6484375 97.20703125 Z " fill="#0B1729" transform="translate(1924,261)"/>
<path d="M0 0 C1.11755676 -0.01475876 1.11755676 -0.01475876 2.25769043 -0.02981567 C42.6661702 -0.45298779 80.15369968 6.75579278 110.09375 35.86328125 C125.20088209 51.08785831 137.45332957 72.80684667 138.06640625 94.73046875 C138.03417969 95.55804688 138.00195312 96.385625 137.96875 97.23828125 C133.25244317 98.64782714 128.59931635 99.76431563 123.75170898 100.65869141 C123.06782104 100.78577988 122.38393311 100.91286835 121.67932129 101.04380798 C119.44180354 101.45855152 117.20339259 101.86820484 114.96484375 102.27734375 C113.39735727 102.5657998 111.82989861 102.85440701 110.26246643 103.14315796 C106.98733767 103.74559551 103.71173101 104.34534957 100.43579102 104.94335938 C96.24626342 105.70848945 92.05825814 106.48162489 87.87060452 107.25693703 C84.63787466 107.85430304 81.40425721 108.44674719 78.17036629 109.03779221 C76.62596161 109.32079329 75.08186189 109.60546407 73.53808403 109.89186478 C71.3784183 110.29189853 69.21761382 110.68510822 67.05639648 111.07666016 C65.82952621 111.30157135 64.60265594 111.52648254 63.33860779 111.75820923 C60.15926024 112.21114104 57.17435366 112.32929769 53.96875 112.23828125 C53.64003906 110.78808594 53.64003906 110.78808594 53.3046875 109.30859375 C50.61798232 98.04415095 47.05252429 87.92751766 36.96875 81.23828125 C26.02966779 74.61580146 13.92670748 72.52337974 1.26953125 74.703125 C-6.60431083 76.79210351 -14.55449154 80.35873586 -19.09375 87.36328125 C-21.94844738 92.42249582 -22.62623079 97.46155867 -22.03125 103.23828125 C-19.86503445 109.9649506 -16.73265254 113.67103156 -10.64453125 117.203125 C-5.15138189 119.87524903 0.63680221 120.92588992 6.59375 122.11328125 C7.81505615 122.36811279 9.0363623 122.62294434 10.29467773 122.88549805 C16.69269603 124.21072909 23.10157508 125.45765576 29.52734375 126.640625 C65.46100554 133.33014146 104.17784958 145.09593721 126.10644531 176.88769531 C137.16876639 193.68671138 142.5791515 211.29011828 142.40625 231.48828125 C142.39795166 232.75317383 142.38965332 234.01806641 142.38110352 235.32128906 C141.86624029 264.01437819 129.96809235 289.24175771 109.3046875 309.2109375 C78.75177391 335.72759662 38.69350072 343.19001569 -0.78955078 340.78857422 C-39.23255433 337.91317217 -73.6291656 324.53118998 -99.5859375 295.23828125 C-111.39409414 280.75159707 -122.24698609 260.62755779 -122.07055664 241.49975586 C-122.06488174 240.69888046 -122.05920685 239.89800507 -122.05335999 239.07286072 C-122.04606369 238.46744949 -122.0387674 237.86203827 -122.03125 237.23828125 C-111.83563964 235.40680878 -101.63904434 233.58093305 -91.4411602 231.76216125 C-86.70571994 230.91742455 -81.97063819 230.0707765 -77.23632812 229.21972656 C-72.66598464 228.39822473 -68.09476257 227.58178794 -63.522892 226.76882935 C-61.78030399 226.45805429 -60.03803815 226.14546705 -58.29610825 225.83102417 C-55.85302334 225.3903349 -53.40886407 224.95614953 -50.96435547 224.5234375 C-49.88865044 224.32707199 -49.88865044 224.32707199 -48.79121399 224.1267395 C-44.82794282 223.43299579 -41.05499705 223.01438093 -37.03125 223.23828125 C-35.17003458 225.09949667 -35.24076117 228.23768557 -34.78125 230.73828125 C-33.44827507 237.05709511 -31.74066427 241.96539485 -28.03125 247.23828125 C-27.57363281 247.9240625 -27.11601562 248.60984375 -26.64453125 249.31640625 C-20.37575679 257.59055692 -9.88547905 261.84871292 -0.03125 264.23828125 C14.05728941 266.16438807 26.89778061 265.32725926 38.96875 257.23828125 C43.39738307 253.00704849 46.00729634 248.32748776 46.96875 242.23828125 C47.04259572 236.320074 46.03422488 230.76153078 41.96875 226.23828125 C30.06358339 216.40987798 12.01263687 214.20887236 -2.67370605 211.04510498 C-40.23000302 202.90542056 -79.94660326 191.91566402 -102.109375 157.56738281 C-115.21095207 136.19424848 -118.89950426 109.04757982 -113.46875 84.61328125 C-107.03763179 58.33722896 -89.8402204 34.5664534 -66.83984375 20.328125 C-46.46016836 8.04749988 -24.00298453 0.26308948 0 0 Z " fill="#0B1729" transform="translate(2604.03125,243.76171875)"/>
<path d="M0 0 C0.82704941 0.00202423 1.65409882 0.00404846 2.50621033 0.00613403 C3.37281784 0.00438171 4.23942535 0.00262939 5.1322937 0.00082397 C8.01150993 -0.00359568 10.89066529 -0.00065615 13.7698822 0.00271606 C15.76145947 0.00204306 17.75303666 0.00107306 19.74461365 -0.00018311 C23.92443115 -0.00166023 28.10422733 0.00049495 32.28404236 0.00515747 C37.65465747 0.01085476 43.0252226 0.00757584 48.39583588 0.00158501 C52.51005941 -0.00202021 56.62427099 -0.0008822 60.73849487 0.0017128 C62.71934007 0.00238218 64.70018633 0.00155326 66.68103027 -0.00076675 C69.44440096 -0.00329263 72.20768954 0.00054639 74.97105408 0.00613403 C75.79810349 0.0041098 76.62515289 0.00208557 77.4772644 0 C83.12436976 0.02126612 83.12436976 0.02126612 84.2386322 1.13552856 C84.33385638 3.99644675 84.36416546 6.83316477 84.35215759 9.69436646 C84.35230362 10.59184097 84.35244965 11.48931549 84.3526001 12.41398621 C84.35190062 15.39540991 84.34410661 18.37677196 84.33628845 21.35818481 C84.3344244 23.41941799 84.33300043 25.4806516 84.33200073 27.54188538 C84.32817458 32.97856866 84.31834346 38.41522542 84.30729675 43.85189819 C84.29708473 49.39500571 84.29250356 54.93811749 84.28746033 60.48123169 C84.27672128 71.366009 84.25964369 82.25076658 84.2386322 93.13552856 C85.00062424 93.13330795 85.76261627 93.13108734 86.54769897 93.12879944 C93.71414932 93.108797 100.88058622 93.09355468 108.04705715 93.08371639 C111.73177718 93.07848848 115.41647423 93.07139252 119.10118103 93.06008911 C122.65434051 93.04925694 126.20747783 93.04325103 129.76065254 93.04065132 C131.11908886 93.03879767 132.47752392 93.03517818 133.83595085 93.02979851 C135.73245444 93.02258382 137.62898013 93.02212047 139.52549744 93.02200317 C140.60693527 93.01978256 141.68837311 93.01756195 142.80258179 93.01527405 C145.2386322 93.13552856 145.2386322 93.13552856 146.2386322 94.13552856 C146.33377812 96.84390943 146.36418152 99.5267137 146.35215759 102.23538208 C146.35230362 103.08408875 146.35244965 103.93279541 146.3526001 104.80722046 C146.35190068 107.62631747 146.34410698 110.44534927 146.33628845 113.26443481 C146.33442437 115.21356673 146.33300042 117.16269911 146.33200073 119.11183167 C146.32817475 124.25259688 146.31834379 129.39333404 146.30729675 134.53408813 C146.29529016 140.69644338 146.29068077 146.85880799 146.28484344 153.02117157 C146.27513208 162.39264344 146.25597608 171.76405369 146.2386322 181.13552856 C125.7786322 181.13552856 105.3186322 181.13552856 84.2386322 181.13552856 C84.30015802 203.61709202 84.30015802 203.61709202 84.39878845 226.09841919 C84.44726715 235.27167509 84.4917348 244.4448212 84.5096283 253.61819458 C84.52268131 260.30035893 84.5497383 266.98229891 84.59324527 273.66433686 C84.61577871 277.19876374 84.63154781 280.73291474 84.63051605 284.26741982 C84.62962452 288.22409214 84.66001425 292.18020566 84.69273376 296.13674927 C84.6877034 297.29409576 84.68267303 298.45144226 84.67749023 299.64385986 C84.7777544 307.51443387 85.61716008 315.87918828 90.91643143 322.10745716 C98.48349479 329.18093098 107.59148791 330.33060738 117.5511322 330.32302856 C118.71406799 330.32508301 118.71406799 330.32508301 119.90049744 330.32717896 C126.3421872 330.27445824 132.64432059 329.66097605 139.01914978 328.75930786 C140.75456176 328.51727834 142.49632305 328.32151739 144.2386322 328.13552856 C145.98155397 329.87845033 145.35843523 332.14176352 145.36305237 334.46377563 C145.35945709 335.22694092 145.35586182 335.9901062 145.35215759 336.77639771 C145.35230362 337.57633652 145.35244965 338.37627533 145.3526001 339.20045471 C145.35190076 341.85722521 145.34410739 344.51392649 145.33628845 347.17068481 C145.33442435 349.00771547 145.33300041 350.84474662 145.33200073 352.68177795 C145.32817495 357.52662519 145.31834416 362.37144264 145.30729675 367.21627808 C145.29708392 372.15615435 145.29250339 377.09603541 145.28746033 382.03591919 C145.27672194 391.7358021 145.25964481 401.43566286 145.2386322 411.13552856 C143.98294565 411.78049129 142.72521633 412.42147776 141.46665955 413.06082153 C140.76648712 413.41820404 140.0663147 413.77558655 139.34492493 414.14379883 C112.69960085 426.68951952 73.59553248 423.41742265 46.73106384 414.09719849 C32.76855137 408.923985 21.61760436 401.7572837 11.2386322 391.13552856 C10.43941345 390.35693481 9.6401947 389.57834106 8.8167572 388.77615356 C-11.59745126 367.79879453 -15.95266546 337.82937588 -15.87489319 309.75979614 C-15.87461046 308.34932456 -15.87477072 306.93885284 -15.87533569 305.52838135 C-15.87562032 301.73368604 -15.86977802 297.93902292 -15.86276174 294.14433503 C-15.85647217 290.16587125 -15.85591999 286.18740658 -15.85473633 282.2089386 C-15.85163943 274.69048803 -15.84344835 267.17205215 -15.83338684 259.65360802 C-15.82217449 251.0876171 -15.81670239 242.52162544 -15.8116914 233.95562899 C-15.80126422 216.34891885 -15.78293935 198.74222883 -15.7613678 181.13552856 C-34.2413678 181.13552856 -52.7213678 181.13552856 -71.7613678 181.13552856 C-71.7613678 152.09552856 -71.7613678 123.05552856 -71.7613678 93.13552856 C-59.3863678 92.64052856 -59.3863678 92.64052856 -46.7613678 92.13552856 C-34.40029031 89.04525919 -24.52930767 86.42845097 -16.7613678 76.13552856 C-9.81166752 64.51157228 -7.48637909 54.35205401 -7.38246155 40.91677856 C-7.36546707 39.77769043 -7.3484726 38.63860229 -7.33096313 37.46499634 C-7.27815986 33.85522885 -7.23764554 30.2454718 -7.1988678 26.63552856 C-7.15495874 22.99707496 -7.10837018 19.35871022 -7.05606079 15.72036743 C-7.02405447 13.46237925 -6.99717987 11.20431159 -6.97583008 8.94619751 C-6.96234024 7.93424316 -6.9488504 6.92228882 -6.93495178 5.87966919 C-6.92068398 4.53805725 -6.92068398 4.53805725 -6.90612793 3.16934204 C-6.60095882 -1.11814396 -3.61299904 0.01360599 0 0 Z " fill="#0B1729" transform="translate(2859.7613677978516,159.86447143554688)"/>
</svg>
